<?xml version="1.0" standalone="no"?>
<!DOCTYPE svg PUBLIC "-//W3C//DTD SVG 1.1//EN" "http://www.w3.org/Graphics/SVG/1.1/DTD/svg11.dtd" >
<svg xmlns="http://www.w3.org/2000/svg">
<metadata>
This is a custom SVG webfont generated by Font Squirrel.
Copyright   :  2008 Microsoft Corporation All Rights Reserved
Foundry     : Microsoft Corporation
Foundry URL : httpwwwmicrosoftcomtypographyfonts
</metadata>
<defs>
<font id="SegoeUICursiva" horiz-adv-x="1104" >
<font-face units-per-em="2048" ascent="1638" descent="-410" />
<missing-glyph horiz-adv-x="563" />
<glyph unicode=" "  horiz-adv-x="563" />
<glyph unicode="&#x09;" horiz-adv-x="563" />
<glyph unicode="&#xa0;" horiz-adv-x="563" />
<glyph unicode="!" horiz-adv-x="653" d="M133 92q0 23 8.5 43.5t23.5 35.5t35.5 23.5t43.5 8.5q22 0 42 -8.5t35 -23.5t24 -35.5t9 -43.5t-9 -43t-24 -35t-35 -23.5t-42 -8.5q-23 0 -43.5 8.5t-35.5 23.5t-23.5 35t-8.5 43zM231 403l201 1031h172l-237 -1031h-136z" />
<glyph unicode="&#x22;" horiz-adv-x="766" d="M274 1434h138l-11 -447h-116zM557 1434h137l-10 -447h-119z" />
<glyph unicode="#" horiz-adv-x="1210" d="M92 520l21 107h264l61 297h-276l20 108h277l84 402h127l-82 -402h250l86 402h123l-82 -402h260l-23 -106h-260l-63 -299h280l-26 -107h-275l-88 -397h-127l86 397h-250l-84 -397h-125l84 397h-262zM500 627h254l63 299h-252z" />
<glyph unicode="$" d="M74 63l28 162q28 -18 65.5 -35t79.5 -31t85 -24t82 -14l114 530q-61 44 -113 86.5t-89.5 90t-58.5 104.5t-21 129q0 82 32.5 152.5t91.5 122.5t142.5 82.5t185.5 31.5l35 166h105l-37 -170q69 -5 135 -23t111 -37l-29 -153q-21 12 -49 24.5t-60.5 23.5t-67 19t-67.5 11 l-119 -553q53 -39 103 -80t88.5 -86.5t62 -97.5t23.5 -113q0 -67 -22 -135.5t-73.5 -125t-136 -94.5t-208.5 -42l-43 -193h-103l41 195q-42 2 -88 10t-88 19t-78 23.5t-59 24.5zM414 1065q0 -38 11 -71t31 -62t47.5 -55t61.5 -52l103 488q-63 -4 -110.5 -26t-79.5 -56.5 t-48 -77.5t-16 -88zM522 121q65 5 110.5 27.5t75 56t43 75t13.5 85.5q0 29 -8 55.5t-25 53t-45 54t-68 58.5z" />
<glyph unicode="%" horiz-adv-x="1686" d="M170 1010q0 54 12.5 107.5t36.5 103t58.5 92t78 74t96.5 49.5t113 18q64 0 116 -19.5t89 -57t57.5 -92t20.5 -124.5q0 -84 -28 -164.5t-79 -143.5t-122 -101.5t-158 -38.5q-58 0 -102.5 13.5t-77 37t-54 53.5t-34 63t-18 66.5t-5.5 63.5zM190 0l1229 1434h148 l-1229 -1434h-148zM305 1008q0 -35 9 -68t28 -59t49.5 -42t73.5 -16q55 0 100.5 28.5t78.5 75t51 106.5t18 124q0 36 -8 69.5t-26 59.5t-47 41.5t-71 15.5q-61 0 -108.5 -32t-80.5 -81t-50 -108.5t-17 -113.5zM913 276q0 81 28 160.5t79.5 143t124.5 102.5t164 39 q64 0 116 -19.5t89 -57t57 -92t20 -124.5q0 -84 -28 -164.5t-78.5 -143.5t-122 -101.5t-158.5 -38.5t-143.5 29.5t-89.5 73.5t-45.5 96t-12.5 97zM1049 274q0 -35 9 -68.5t28 -59t49 -41t73 -15.5q56 0 101.5 28.5t78 75t50.5 106.5t18 124q0 36 -8 69.5t-26 59.5t-47 41.5 t-70 15.5q-61 0 -108.5 -32t-80.5 -81.5t-50 -108.5t-17 -114z" />
<glyph unicode="&#x26;" horiz-adv-x="1576" d="M51 350q0 92 32 166.5t90 134t138.5 106.5t177.5 84q-21 18 -42.5 44.5t-38.5 59.5t-28 71.5t-11 81.5q0 84 33.5 150.5t90.5 113t132.5 71.5t159.5 25q75 0 137 -20.5t106.5 -56.5t69 -85t24.5 -107q0 -75 -24 -130.5t-69.5 -98.5t-110 -77t-145.5 -66 q59 -31 106.5 -72.5t86 -89.5t69.5 -100.5t56 -106.5q137 146 208 312.5t79 360.5h159q-4 -119 -36 -230t-84.5 -212.5t-121.5 -193t-146 -171.5q24 -48 46 -83t46 -57.5t53 -33.5t66 -11q30 0 62 7t69 21l-33 -155q-23 -11 -53.5 -18t-68.5 -7q-57 0 -101 17t-80 48 t-65.5 74t-56.5 95q-50 -45 -109 -87.5t-128 -75t-148.5 -52t-171.5 -19.5q-103 0 -182.5 28.5t-133.5 78.5t-81.5 118t-27.5 148zM223 360q0 -56 18.5 -100.5t53 -76t82.5 -48t107 -16.5q79 0 147.5 18t129.5 48.5t114.5 71t102.5 84.5q-36 85 -73 148.5t-80 112.5 t-95 86.5t-118 68.5q-72 -24 -142 -57.5t-125 -81t-88.5 -111t-33.5 -147.5zM528 1101q0 -71 34.5 -124.5t85.5 -82.5q61 21 117.5 45.5t100.5 57t70.5 74.5t26.5 98q0 38 -15 67t-40.5 49.5t-59.5 31t-72 10.5q-57 0 -103 -17t-78 -47.5t-49.5 -72t-17.5 -89.5z" />
<glyph unicode="'" horiz-adv-x="463" d="M268 1434h135l-10 -447h-114z" />
<glyph unicode="(" horiz-adv-x="623" d="M127 305q0 173 37 326.5t105 292.5t165.5 265.5t218.5 244.5h160q-124 -122 -223.5 -252t-169.5 -269t-108 -288.5t-38 -311.5q0 -80 10.5 -161.5t31.5 -160t51 -152.5t69 -138h-141q-42 66 -73.5 140.5t-52.5 152.5t-31.5 157t-10.5 154z" />
<glyph unicode=")" horiz-adv-x="623" d="M-184 -299q124 122 224 251.5t170 268.5t108 288.5t38 311.5q0 80 -10.5 161t-31 160t-50.5 153t-69 139h139q42 -67 74 -142t53 -153t32 -156.5t11 -153.5q0 -172 -37 -326t-105.5 -292.5t-166 -265t-218.5 -244.5h-161z" />
<glyph unicode="*" horiz-adv-x="856" d="M172 1104l43 125l262 -99l-22 304h137l-23 -304l262 99l43 -125l-274 -55l191 -244l-111 -76l-156 264l-157 -264l-111 76l193 244z" />
<glyph unicode="+" horiz-adv-x="1403" d="M256 530v134h406v403h131v-403h403v-134h-403v-403h-131v403h-406z" />
<glyph unicode="," horiz-adv-x="446" d="M-78 -264l201 491h164l-236 -491h-129z" />
<glyph unicode="-" horiz-adv-x="819" d="M131 506l29 129h547l-29 -129h-547z" />
<glyph unicode="." horiz-adv-x="446" d="M23 88q0 23 8.5 43.5t23.5 35.5t35 23.5t43 8.5t43.5 -8.5t35.5 -23.5t23.5 -35.5t8.5 -43.5t-8.5 -43t-23.5 -35t-35.5 -24t-43.5 -9t-43 9t-35 24t-23.5 35t-8.5 43z" />
<glyph unicode="/" horiz-adv-x="811" d="M-164 -238l1041 1672h167l-1040 -1672h-168z" />
<glyph unicode="0" d="M92 451q0 111 18 229.5t55 231t92 212.5t130 176q71 75 159 116.5t199 41.5q80 0 145 -27t111.5 -80.5t71.5 -132.5t25 -184q0 -75 -7 -156.5t-22 -164.5t-38.5 -164.5t-56.5 -157.5t-75.5 -143.5t-95.5 -122.5q-144 -150 -346 -150q-81 0 -148.5 31.5t-115.5 92 t-74.5 149t-26.5 203.5zM260 446q0 -87 16.5 -149.5t45.5 -103t68.5 -59.5t84.5 -19q54 0 106 24t97 72q53 57 99 147.5t80.5 199.5t54.5 228.5t20 233.5q0 140 -52 219.5t-151 79.5q-59 0 -111 -25.5t-102 -76.5q-39 -41 -73.5 -97.5t-63 -122t-50.5 -137.5t-37.5 -144 t-23.5 -141t-8 -129z" />
<glyph unicode="1" d="M51 0l33 143h324l235 1106l-354 -96l35 158l526 147l-281 -1315h324l-31 -143h-811z" />
<glyph unicode="2" d="M-10 0l30 143l560 469q90 76 156 138.5t109.5 120t65 115t21.5 124.5q0 42 -14 80t-43.5 66.5t-75 45.5t-107.5 17q-45 0 -93.5 -11t-97 -30t-94 -43t-83.5 -51l38 178q29 16 66.5 33t83 31t97.5 23t108 9q101 0 173.5 -27t119 -72t68.5 -104.5t22 -124.5 q0 -86 -29.5 -162.5t-85 -151t-134.5 -149.5t-179 -157l-439 -358v-5h654l-31 -147h-866z" />
<glyph unicode="3" d="M35 57l35 156q27 -18 64.5 -36t81 -31.5t91 -22t94.5 -8.5q105 0 176 25.5t114 67t61 95t18 109.5q0 119 -88 188.5t-266 69.5h-109l31 141h119q104 0 183.5 21t133.5 59.5t81.5 93.5t27.5 123q0 43 -14 81.5t-43.5 67t-74 45.5t-106.5 17q-51 0 -97.5 -7.5t-87.5 -19.5 t-76 -27t-62 -30l34 164q26 10 58 20.5t71 19t86 14t103 5.5q101 0 172 -28t117 -73.5t67 -103t21 -116.5q0 -72 -22 -136.5t-69 -116.5t-120 -89.5t-174 -55.5v-4q60 -9 110 -36t85.5 -68t55 -94t19.5 -115q0 -91 -33 -172t-100.5 -142t-169 -97t-238.5 -36q-55 0 -108 7.5 t-99.5 19t-85.5 26t-67 29.5z" />
<glyph unicode="4" d="M2 379l25 113l833 942h199l-195 -920h189l-31 -133h-186l-80 -381h-166l80 379h-668zM225 514h473l131 608q4 16 9 35.5t10 39.5t9.5 39t8.5 34h-4q-15 -22 -36 -52.5t-46 -58.5z" />
<glyph unicode="5" d="M61 29l37 161q24 -16 58 -30t73 -24t80.5 -15.5t81.5 -5.5q114 0 190 34t122 86t65.5 113.5t19.5 116.5q0 129 -72 195.5t-229 66.5q-30 0 -64.5 -1t-68 -2.5t-64 -3t-52.5 -3.5l151 717h694l-30 -150h-539l-88 -418q29 2 54 3t52 1q115 0 195.5 -30.5t131.5 -82 t74 -119.5t23 -144q0 -57 -12.5 -117.5t-40.5 -118.5t-72.5 -109t-109 -90t-149 -61.5t-193.5 -22.5q-45 0 -91 4t-88 11.5t-78 17t-61 21.5z" />
<glyph unicode="6" d="M117 481q0 129 24.5 251.5t70 231t110 199t145.5 154.5q91 72 195.5 106.5t209.5 34.5q78 0 141.5 -13.5t100.5 -27.5l-33 -155q-42 24 -101 40.5t-128 16.5q-81 0 -154 -29t-135 -82q-51 -42 -94 -100.5t-77.5 -126.5t-59.5 -141.5t-39 -145.5h4q26 43 63 80t82.5 64.5 t99 43t111.5 15.5q89 0 156 -28t112 -79t68 -122t23 -158q0 -100 -31.5 -196t-93 -171.5t-151.5 -121.5t-206 -46q-92 0 -168 31t-130.5 94t-84.5 158t-30 223zM285 426q0 -71 18 -128.5t51 -98t80.5 -62.5t106.5 -22q72 0 128.5 32.5t95 85.5t59 122t20.5 141 q0 55 -14.5 102.5t-44.5 82.5t-77 55t-112 20q-77 0 -135 -29t-97 -76t-59 -106t-20 -119z" />
<glyph unicode="7" d="M139 0l797 1286h-709l31 148h930l-10 -52l-852 -1382h-187z" />
<glyph unicode="8" d="M61 334q0 85 28 152.5t78.5 120t121.5 91t157 66.5q-81 59 -129.5 138t-48.5 173q0 97 37.5 169t99.5 119.5t143 71t169 23.5q95 0 165 -26.5t117 -71t70 -102.5t23 -121q0 -83 -26.5 -147.5t-73.5 -113.5t-113 -84t-144 -61q122 -67 184 -153t62 -205q0 -76 -30 -148 t-91.5 -127.5t-156 -89t-222.5 -33.5q-96 0 -173.5 26.5t-132.5 74t-84.5 113.5t-29.5 145zM227 342q0 -40 15.5 -80.5t48 -73t82.5 -53t119 -20.5q78 0 138 19t100.5 52.5t61.5 80.5t21 102q0 51 -17.5 96t-50 83t-77.5 70.5t-101 59.5q-169 -48 -254.5 -127.5 t-85.5 -208.5zM436 1079q0 -87 45 -152t123 -116q78 20 137.5 46.5t100 63t61.5 85t21 112.5q0 45 -15 82.5t-43 63.5t-68 40.5t-91 14.5q-67 0 -118 -18t-85 -50t-51 -76t-17 -96z" />
<glyph unicode="9" d="M74 16l22 156q35 -20 90.5 -38.5t130.5 -18.5q84 0 162 27.5t139 76.5q50 38 93 91t78.5 118t62.5 141t43 160h-4q-28 -45 -65 -83t-81 -65t-95 -42t-107 -15q-105 0 -176.5 38t-115 96.5t-62.5 129.5t-19 136q0 60 12.5 122.5t39 122t66.5 112t94.5 92t125 62.5 t156.5 23q103 0 179.5 -37.5t127 -104.5t75.5 -157.5t25 -197.5q0 -118 -22 -240.5t-67 -236t-112.5 -211.5t-158.5 -167q-90 -68 -190 -99.5t-212 -31.5q-78 0 -140.5 12t-94.5 29zM338 940q0 -50 13 -99.5t42 -88.5t75.5 -63.5t113.5 -24.5q84 0 145 31t100 80.5t57.5 110 t18.5 118.5q0 71 -18 129t-51 99t-79 64t-102 23q-75 0 -133.5 -32t-99 -84.5t-61.5 -121t-21 -141.5z" />
<glyph unicode=":" horiz-adv-x="446" d="M23 88q0 23 8.5 43.5t23.5 35.5t35 23.5t43 8.5t43.5 -8.5t35.5 -23.5t23.5 -35.5t8.5 -43.5t-8.5 -43t-23.5 -35t-35.5 -24t-43.5 -9t-43 9t-35 24t-23.5 35t-8.5 43zM201 936q0 22 8.5 42t23.5 35.5t35 24.5t43 9t43.5 -9t35.5 -24.5t23.5 -35.5t8.5 -42 q0 -23 -9 -43.5t-24 -35.5t-35 -23.5t-43 -8.5t-43 8.5t-35 23.5t-23.5 35.5t-8.5 43.5z" />
<glyph unicode=";" horiz-adv-x="446" d="M-102 -264l202 491h164l-237 -491h-129zM201 936q0 22 8.5 42t23.5 35.5t35 24.5t43 9t43.5 -9t35.5 -24.5t23.5 -35.5t8.5 -42q0 -23 -9 -43.5t-24 -35.5t-35 -23.5t-43 -8.5t-43 8.5t-35 23.5t-23.5 35.5t-8.5 43.5z" />
<glyph unicode="&#x3c;" horiz-adv-x="1403" d="M238 559v59l860 482v-150l-643 -356v-4l643 -314v-149z" />
<glyph unicode="=" horiz-adv-x="1403" d="M256 317v134h940v-134h-940zM256 743v134h940v-134h-940z" />
<glyph unicode="&#x3e;" horiz-adv-x="1403" d="M330 127v149l643 312v6l-643 354v152l858 -482v-59z" />
<glyph unicode="?" horiz-adv-x="881" d="M193 92q0 23 8.5 43.5t23.5 35.5t35 23.5t43 8.5q22 0 42 -8.5t35.5 -23.5t24.5 -35.5t9 -43.5t-9 -43t-24.5 -35t-35.5 -23.5t-42 -8.5q-23 0 -43 8.5t-35 23.5t-23.5 35t-8.5 43zM268 1235l29 168q62 28 134 43.5t147 15.5q86 0 150.5 -26t107.5 -70t64.5 -101.5 t21.5 -119.5t-15.5 -116t-48.5 -103.5t-83.5 -97t-119.5 -95.5q-53 -37 -89.5 -70.5t-62 -71t-42.5 -83t-29 -105.5h-151q14 72 32.5 130t47 106.5t70 90t101.5 81.5q63 42 107 80.5t72 77t40.5 77.5t12.5 82q0 37 -13 72.5t-40 63t-67.5 44.5t-94.5 17q-68 0 -140.5 -22 t-140.5 -68z" />
<glyph unicode="@" horiz-adv-x="1966" d="M205 557q0 136 33 255t92.5 219t143 178.5t184 133t216 83t238.5 28.5q179 0 312.5 -53.5t222.5 -144t133.5 -209.5t44.5 -250q0 -128 -34.5 -240.5t-97 -196t-148.5 -132t-189 -48.5q-51 0 -90 14.5t-65.5 39.5t-40 58.5t-13.5 72.5q0 15 1 25l5 28h-4 q-60 -115 -135.5 -175.5t-175.5 -60.5q-54 0 -99.5 22t-78.5 62.5t-51.5 97.5t-18.5 128q0 117 38 223t103.5 187t153 129t186.5 48q43 0 78 -10t61 -27t43.5 -40.5t26.5 -49.5h4q1 5 5.5 21t10 35t10 35.5t5.5 21.5h131q-9 -31 -24.5 -84.5t-34.5 -118t-38 -134t-35 -133 t-26 -115t-10 -79.5q0 -60 23.5 -83t72.5 -23q72 0 131.5 42.5t103 111t67.5 153.5t24 170q0 71 -14 140.5t-44.5 132t-78.5 116t-115.5 92t-155 60.5t-198.5 22q-100 0 -195 -25t-179.5 -72t-154.5 -115t-121 -154.5t-79.5 -190t-28.5 -221.5q0 -138 39.5 -253.5 t120.5 -198.5t204.5 -129t290.5 -46q83 0 157.5 8.5t137 21.5t111.5 29t80 31l-25 -126q-28 -13 -72 -27t-102 -26t-130.5 -19.5t-158.5 -7.5q-185 0 -330.5 52t-246.5 148.5t-154 234t-53 308.5zM733 494q0 -47 11.5 -83.5t31 -61t45.5 -37.5t56 -13q60 0 112 32.5t94 89.5 t74 133t51 163q13 51 13 94q0 75 -40 116.5t-106 41.5q-70 0 -132.5 -37.5t-109 -102.5t-73.5 -151t-27 -184z" />
<glyph unicode="A" horiz-adv-x="1294" d="M-104 0l854 1434h176l250 -1434h-177l-65 401h-608l-232 -401h-198zM412 553h495l-92 610q-1 10 -1.5 23t-0.5 26v26v22h-4q-3 -9 -8 -21.5t-11 -26t-12 -26.5l-12 -23z" />
<glyph unicode="B" horiz-adv-x="1174" d="M74 0l303 1434h395q86 0 152 -24t111 -66t68 -98.5t23 -121.5q0 -67 -19 -128.5t-58.5 -111.5t-101 -86.5t-146.5 -52.5v-4q62 -10 108.5 -36.5t77.5 -64.5t46.5 -85.5t15.5 -101.5q0 -111 -40.5 -195.5t-112.5 -141.5t-170.5 -86.5t-213.5 -29.5h-438zM279 152h231 q94 0 162 20.5t112.5 58.5t66 91.5t21.5 119.5q0 105 -73 165.5t-224 60.5h-190zM418 819h188q86 0 150.5 20t107 56t63.5 86t21 111h2q0 38 -12 72t-38.5 60.5t-69 42t-103.5 15.5h-209z" />
<glyph unicode="C" horiz-adv-x="1309" d="M137 604q0 188 59.5 345t169 270t263 176t340.5 63q128 0 226.5 -27.5t166.5 -62.5l-37 -172q-29 19 -66.5 39t-82.5 36t-98.5 26t-114.5 10q-150 0 -270.5 -53t-204.5 -146t-129.5 -218.5t-45.5 -271.5q0 -119 33 -210.5t94 -154t146 -94.5t188 -32q66 0 120 7.5t100 21 t86.5 32t78.5 39.5l-39 -176q-81 -37 -173.5 -56.5t-207.5 -19.5q-136 0 -247.5 45t-190 127.5t-121.5 198.5t-43 258z" />
<glyph unicode="D" horiz-adv-x="1458" d="M74 0l305 1434h399q140 0 255 -39.5t196.5 -114.5t126.5 -182.5t45 -243.5q0 -106 -21.5 -211t-66 -200t-114.5 -176t-167 -140.5t-222.5 -93t-281.5 -33.5h-454zM276 152h267q169 0 296.5 54t213 148t129 219.5t43.5 268.5q0 210 -123 325t-365 115h-219z" />
<glyph unicode="E" horiz-adv-x="1022" d="M74 0l303 1434h727l-33 -152h-553l-104 -489h512l-33 -152h-512l-105 -489h588l-30 -152h-760z" />
<glyph unicode="F" horiz-adv-x="1001" d="M74 0l303 1434h727l-33 -156h-553l-106 -490h514l-33 -155h-514l-133 -633h-172z" />
<glyph unicode="G" horiz-adv-x="1409" d="M137 610q0 116 24 224t71 202.5t117 172t162 133t205.5 86t248.5 30.5q74 0 137.5 -9t116 -23t93.5 -30.5t70 -31.5l-32 -174q-33 22 -75.5 43t-93.5 37.5t-110.5 26.5t-126.5 10q-149 0 -266 -53t-198 -144.5t-124 -215.5t-43 -265q0 -117 32.5 -210t93.5 -158 t147.5 -99.5t195.5 -34.5q75 0 135.5 12.5t112.5 32.5l86 418h-332l33 149h504l-141 -661q-85 -45 -188 -75t-230 -30q-147 0 -263 49t-196.5 134.5t-123 202t-42.5 251.5z" />
<glyph unicode="H" horiz-adv-x="1450" d="M74 0l303 1434h174l-135 -629h733l135 629h172l-305 -1434h-172l137 647h-733l-135 -647h-174z" />
<glyph unicode="I" horiz-adv-x="545" d="M74 0l303 1434h174l-305 -1434h-172z" />
<glyph unicode="J" horiz-adv-x="709" d="M-106 10l28 160q11 -9 26.5 -17.5t33.5 -14.5t38 -9.5t39 -3.5q54 0 100 19.5t83.5 64t67.5 116t52 175.5l197 934h172l-196 -926q-28 -130 -69.5 -230t-99.5 -167t-134 -101.5t-173 -34.5q-18 0 -43 3t-49 8.5t-44 11.5t-29 12z" />
<glyph unicode="K" horiz-adv-x="1228" d="M74 0l303 1434h174l-143 -674h4q11 12 23.5 25t23.5 24l659 625h228l-773 -711l498 -723h-209l-434 653q-6 11 -15 27t-14 27h-4l-149 -707h-172z" />
<glyph unicode="L" horiz-adv-x="948" d="M74 0l303 1434h174l-272 -1278h571l-33 -156h-743z" />
<glyph unicode="M" horiz-adv-x="1675" d="M74 0l304 1434h200l227 -682q15 -45 23.5 -84t10.5 -68h6q16 30 39 70t59 86l515 678h222l-304 -1434h-167l204 962q12 57 31 129.5t44 155.5h-4q-12 -24 -30 -53.5t-37.5 -57t-35.5 -49.5t-23 -33l-513 -680h-82l-224 678q-2 12 -9.5 34.5t-14.5 50t-12.5 56.5t-5.5 54 h-4q-6 -43 -19.5 -116t-33.5 -171l-204 -960h-162z" />
<glyph unicode="N" horiz-adv-x="1538" d="M74 0l303 1434h201l507 -1125q5 -9 10 -21.5t10 -26t9.5 -26.5t7.5 -22h4q1 12 3 28t4 33.5t5 34.5t5 29l233 1096h170l-305 -1434h-186l-529 1149q-3 8 -7 19.5t-8 24.5t-7 25t-4 19h-6q-1 -10 -2.5 -24.5t-3.5 -29.5t-4.5 -29.5t-4.5 -25.5l-239 -1128h-166z" />
<glyph unicode="O" horiz-adv-x="1544" d="M137 586q0 208 67.5 373t188.5 286q98 98 226.5 155.5t291.5 57.5q132 0 238.5 -45t181.5 -126t115.5 -192t40.5 -243q0 -93 -17 -184.5t-49 -176.5t-78.5 -161t-105.5 -137q-48 -50 -104 -90.5t-120 -69t-137 -43.5t-157 -15q-135 0 -243 46.5t-183.5 128t-115.5 193.5 t-40 243zM313 584q0 -100 27.5 -184t80 -144.5t129.5 -94.5t177 -34q111 0 212.5 44.5t178.5 131.5q48 54 83.5 120.5t59.5 138t36 144.5t12 140q0 107 -29 192t-83 145t-130 92t-170 32q-111 0 -212 -48t-179 -133q-44 -48 -79.5 -110t-61 -132t-39 -146t-13.5 -154z" />
<glyph unicode="P" horiz-adv-x="1178" d="M74 0l303 1434h371q115 0 196.5 -31.5t133 -84t75 -120.5t23.5 -141q0 -106 -36 -199.5t-109.5 -163.5t-186.5 -110.5t-266 -40.5h-218l-114 -543h-172zM393 694h201q106 0 182.5 26.5t126 73t73 110t23.5 138.5q0 54 -18.5 98.5t-54.5 76t-89.5 48.5t-123.5 17h-195z " />
<glyph unicode="Q" horiz-adv-x="1544" d="M137 582q0 209 66.5 375t187.5 286q47 46 101.5 85.5t118.5 68t139.5 45t164.5 16.5q132 0 238 -46t180.5 -127t114 -193t39.5 -244q0 -95 -16.5 -188t-49.5 -179t-82 -162.5t-113 -139t-143.5 -108.5t-173.5 -71q40 -56 76.5 -99t76 -72.5t85 -44.5t104.5 -15 q32 0 74.5 6.5t74.5 18.5l-34 -162q-35 -9 -80 -14.5t-79 -5.5q-96 0 -166 28.5t-126.5 78t-104.5 115.5t-99 142q-140 3 -247 52t-180 131t-110 191t-37 232zM313 582q0 -99 27.5 -182.5t80 -144t129.5 -94.5t177 -34q117 0 217 46.5t172 127.5q48 54 84 119t60 135.5 t36.5 143.5t12.5 143q0 107 -28.5 192.5t-81.5 146.5t-128.5 93.5t-169.5 32.5q-109 0 -211 -46t-180 -131q-94 -103 -145.5 -244t-51.5 -304z" />
<glyph unicode="R" horiz-adv-x="1192" d="M74 0l303 1434h395q105 0 180 -28t123 -76.5t71 -113t23 -137.5q0 -93 -32.5 -168t-89.5 -129t-136 -86.5t-172 -40.5v-4q47 -15 82.5 -63t57.5 -129l120 -459h-184l-106 428q-23 94 -73.5 138t-133.5 44h-125l-131 -610h-172zM408 762h198q105 0 178.5 25t120 66 t67.5 95.5t21 112.5q0 48 -15 88.5t-46 70t-79 46t-114 16.5h-221z" />
<glyph unicode="S" horiz-adv-x="1018" d="M37 66l29 174q32 -23 73 -43.5t87 -36t95 -24.5t97 -9q76 0 130.5 18t90 49.5t52 74.5t16.5 93q0 45 -14 81t-43 70.5t-73.5 70t-105.5 78.5q-49 35 -93.5 75.5t-78 88.5t-53 104.5t-19.5 122.5q0 82 30.5 155.5t90.5 129t148.5 88t205.5 32.5q45 0 89.5 -5.5t86.5 -15 t79.5 -21t66.5 -23.5l-33 -174q-25 18 -59.5 34t-74 28t-82.5 19t-85 7q-80 0 -134.5 -22.5t-87.5 -57t-47.5 -75.5t-14.5 -77q0 -47 13 -85t39 -73t67 -70t96 -75q62 -45 110.5 -89t82.5 -90.5t51.5 -98t17.5 -111.5q0 -37 -7.5 -81.5t-27 -89.5t-53.5 -88t-86.5 -76 t-126.5 -53t-174 -20q-56 0 -110 8t-102.5 21t-89 29.5t-69.5 32.5z" />
<glyph unicode="T" horiz-adv-x="1077" d="M195 1282l32 152h996l-33 -152h-408l-270 -1282h-172l272 1282h-417z" />
<glyph unicode="U" horiz-adv-x="1411" d="M168 430q0 43 5.5 97t14.5 102l174 805h173l-173 -795q-4 -23 -8.5 -50t-8 -54t-5.5 -51t-2 -42q0 -80 24 -139t66.5 -98t100 -58.5t124.5 -19.5q85 0 152 24t118 75t87.5 130t60.5 189l191 889h172l-187 -871q-30 -140 -75.5 -249.5t-117 -184.5t-174.5 -114.5 t-247 -39.5q-111 0 -198 35t-146 96t-90 144t-31 180z" />
<glyph unicode="V" horiz-adv-x="1286" d="M213 1434h174l158 -1123q5 -28 7 -63.5t-1 -61.5h4q5 13 11 29q8 17 16 33l16 32q8 16 16 31l641 1123h193l-852 -1434h-168z" />
<glyph unicode="W" horiz-adv-x="1903" d="M197 1434h178l74 -1092q1 -17 1 -35t-1 -38q-2 -39 -7 -70h4q5 14 12 32t15 37.5t16.5 38.5t16.5 35l557 1092h154l90 -1100q2 -21 2 -48v-18q-1 -38 -4 -69h4q5 16 11.5 34.5t14 37t15 36t14.5 31.5l526 1096h187l-715 -1434h-178l-92 1063q-1 14 -1 29q-1 19 1 41 q2 39 6 73h-4q-10 -32 -25 -72t-31 -69l-544 -1065h-183z" />
<glyph unicode="X" horiz-adv-x="1210" d="M-88 0q7 8 36 41.5t72 82.5t96 109.5t108 124t109 125t98.5 113t76.5 88t43 49.5q-5 15 -20.5 51.5t-37 86t-47 108t-52 118.5t-51.5 117t-45 103.5t-33.5 77.5t-16.5 39h198l203 -535q3 -7 6.5 -16.5t6.5 -20t6 -20.5t4 -17h4q3 6 8 15.5t11.5 20t13.5 21.5t14 19 l440 533h201q-7 -9 -35 -42t-69 -82t-92 -108.5t-104 -121.5t-104.5 -122.5t-93.5 -109.5t-71 -83.5t-37 -45.5q3 -10 17 -44t35 -83.5t46.5 -110t52 -123t52 -122.5t46.5 -109.5t35.5 -83t18.5 -43.5h-195l-213 549q-2 5 -5 14.5t-6 20.5t-5 21.5t-4 17.5h-4 q-3 -6 -8 -15.5t-11.5 -21t-13.5 -22.5t-14 -19l-455 -545h-215z" />
<glyph unicode="Y" horiz-adv-x="1135" d="M211 1434h182l178 -660q7 -23 11.5 -46.5t7.5 -39.5h2q8 16 22 38.5t29 45.5l477 662h193l-662 -889l-114 -545h-172l114 541z" />
<glyph unicode="Z" horiz-adv-x="1167" d="M-78 0l10 51l1074 1231h-744l31 152h1026l-10 -43l-1082 -1239h799l-33 -152h-1071z" />
<glyph unicode="[" horiz-adv-x="623" d="M35 -326l375 1760h368l-26 -119h-222l-323 -1522h221l-25 -119h-368z" />
<glyph unicode="\" horiz-adv-x="791" d="M158 1434h147l344 -1674h-143z" />
<glyph unicode="]" horiz-adv-x="623" d="M-152 -326l25 119h221l324 1520h-221l24 121h369l-375 -1760h-367z" />
<glyph unicode="^" horiz-adv-x="1403" d="M262 625l422 833h66l456 -833h-151l-332 618h-6l-307 -618h-148z" />
<glyph unicode="_" horiz-adv-x="850" d="M-172 -297l25 119h849l-24 -119h-850z" />
<glyph unicode="`" horiz-adv-x="715" d="M289 1546h153l207 -327h-121z" />
<glyph unicode="a" horiz-adv-x="1110" d="M78 356q0 58 12 132t40.5 151t76 150.5t118 131.5t166.5 93t222 35q80 0 165 -12t169 -29l-142 -680q-8 -38 -15.5 -85.5t-13 -94t-9 -86.5t-3.5 -62h-170q1 20 3 48t5.5 58t7 59t7.5 50h-4q-31 -49 -63 -92.5t-71 -76.5t-87 -52t-113 -19q-67 0 -122.5 24t-95.5 71.5 t-61.5 119t-21.5 166.5zM246 362q0 -57 10 -102.5t31.5 -77.5t55 -49.5t79.5 -17.5q50 0 93.5 20.5t81.5 55.5t69 81t56 97.5t42.5 105t28.5 103.5l65 311q-35 8 -82 14t-88 6q-87 0 -153.5 -27.5t-115.5 -72t-82.5 -102.5t-53.5 -118.5t-28.5 -119.5t-8.5 -107z" />
<glyph unicode="b" horiz-adv-x="1110" d="M63 68l308 1448h166l-103 -490q-11 -49 -22.5 -103t-22.5 -96h2q32 51 68 92t77.5 70t89 44.5t103.5 15.5q146 0 224.5 -100t78.5 -283q0 -68 -14 -145.5t-45 -154t-79 -147.5t-115.5 -125t-156 -86.5t-200.5 -32.5q-46 0 -95 6.5t-96 18.5t-90 29t-78 39zM250 160 q34 -19 85.5 -32t106.5 -13q71 0 130 23.5t106 64.5t82 95t58 114.5t34.5 125t11.5 124.5q0 57 -10.5 103t-33 78t-57.5 49t-85 17q-63 0 -121 -37t-106 -98t-83 -138t-51 -157z" />
<glyph unicode="c" horiz-adv-x="893" d="M78 393q0 84 17 165.5t50.5 154t82.5 134.5t112.5 106.5t141.5 70t169 25.5q43 0 82 -6t71 -16t57 -21.5t40 -22.5l-37 -162q-42 37 -101.5 62.5t-131.5 25.5q-69 0 -124.5 -24t-98.5 -64t-74 -92t-51 -108t-29.5 -111.5t-9.5 -103.5q0 -143 63 -217t172 -74 q66 0 137 27.5t134 70.5l-35 -164q-65 -35 -129.5 -54.5t-136.5 -19.5q-94 0 -163.5 32t-115.5 88t-69 132.5t-23 165.5z" />
<glyph unicode="d" horiz-adv-x="1110" d="M78 358q0 74 15.5 154t48 157t82.5 146t119 121t158 82.5t199 30.5q56 0 104 -7.5t83 -15.5l104 490h162l-252 -1201q-7 -32 -13.5 -77t-11.5 -90.5t-8.5 -85.5t-3.5 -62h-170q0 17 2.5 45.5t6 59.5t7.5 59.5t7 46.5h-4q-36 -58 -72 -102.5t-76 -74t-85 -44.5t-99 -15 q-70 0 -126 25t-95.5 73.5t-60.5 120t-21 164.5zM246 365q0 -56 9.5 -102t31 -79t55.5 -51t82 -18q50 0 93.5 21t81.5 57t69 83t56 100t42.5 107.5t28.5 104.5l63 297q-38 11 -79.5 17.5t-88.5 6.5q-87 0 -153.5 -27t-116 -72t-83 -102.5t-54 -118t-29 -119t-8.5 -105.5z " />
<glyph unicode="e" horiz-adv-x="997" d="M78 399q0 90 20 173.5t56.5 155.5t87.5 131.5t113 101.5t133 65t147 23q79 0 139.5 -21t101 -57.5t61.5 -84.5t21 -102q0 -81 -36 -147.5t-119 -114t-219 -73.5t-336 -27q-2 -11 -2 -23v-20q0 -54 15 -102t46.5 -84t81 -57t117.5 -21q69 0 151.5 26.5t157.5 75.5 l-31 -162q-55 -32 -131 -56t-170 -24q-113 0 -190.5 35t-125 93.5t-68.5 135t-21 160.5zM264 559q143 0 243 14.5t163 42.5t92 68.5t29 91.5q0 63 -46.5 98t-123.5 35q-61 0 -118 -26.5t-105 -73t-83 -111t-51 -139.5z" />
<glyph unicode="f" horiz-adv-x="604" d="M10 -340l264 1225h-176l31 139h176l41 190q19 88 53 150t81 101t106.5 57t130.5 18q37 0 72.5 -6t60.5 -14l-27 -146q-10 5 -24 9.5t-30 8.5t-33.5 6.5t-33.5 2.5q-82 0 -126.5 -53.5t-67.5 -159.5l-37 -164h242l-33 -139h-242l-262 -1225h-166z" />
<glyph unicode="g" horiz-adv-x="1110" d="M-35 -403l31 153q63 -38 134 -64t153 -26q89 0 154.5 26t113 76.5t79 123.5t52.5 167l35 160h-4q-38 -61 -74.5 -105.5t-76.5 -74t-84 -44t-97 -14.5q-69 0 -125 24.5t-95.5 72.5t-61 120t-21.5 166q0 89 19.5 175t56.5 163t90.5 141.5t121.5 111.5t149.5 73.5 t174.5 26.5t186 -12t171 -27l-197 -936q-25 -120 -66 -221.5t-108.5 -176t-166.5 -116t-241 -41.5q-98 0 -170.5 23t-132.5 55zM246 365q0 -54 9.5 -100t30 -79t53 -52t79.5 -19q55 0 101.5 23t85.5 61t69.5 86.5t54 99.5t39.5 100.5t25 89.5l65 314q-34 8 -82.5 14 t-103.5 6q-94 0 -172 -43.5t-134.5 -118t-88 -173.5t-31.5 -209z" />
<glyph unicode="h" horiz-adv-x="1141" d="M49 0l324 1516h164l-156 -732h4q37 57 81 105.5t93.5 84t104 55.5t112.5 20q128 0 194 -75.5t66 -207.5q0 -13 -3.5 -39.5t-8 -56.5t-10 -59.5t-10.5 -49.5l-119 -561h-166l125 600q4 16 8 37t7 42t5 38.5t2 27.5q0 78 -35.5 121t-109.5 43q-64 0 -128 -37.5t-119 -97 t-95.5 -133t-56.5 -145.5l-107 -496h-166z" />
<glyph unicode="i" horiz-adv-x="530" d="M96 172q0 25 5 59t16 84l149 709h166l-150 -713q-9 -42 -12.5 -65t-3.5 -39q0 -41 22.5 -62.5t71.5 -21.5q26 0 45.5 3t36.5 9l-26 -131q-25 -8 -56.5 -13t-62.5 -5q-101 0 -151 50.5t-50 135.5zM318 1389q0 46 32.5 75t76.5 29t75 -29.5t31 -74.5t-30.5 -77t-75.5 -32 q-44 0 -76.5 31.5t-32.5 77.5z" />
<glyph unicode="j" horiz-adv-x="492" d="M-391 -451l29 154q12 -8 28 -16t34 -14.5t36.5 -10.5t34.5 -4q103 0 174 89t108 269l215 1008h164l-207 -977q-55 -264 -170.5 -396t-298.5 -132q-17 0 -36.5 2t-39 6t-38 9.5t-33.5 12.5zM318 1389q0 46 32.5 75t76.5 29t75 -29.5t31 -74.5t-30.5 -77t-75.5 -32 q-44 0 -76.5 31.5t-32.5 77.5z" />
<glyph unicode="k" horiz-adv-x="1004" d="M49 0l324 1516h164l-197 -926h4l510 434h213l-569 -473l362 -551h-190l-336 541h-4l-115 -541h-166z" />
<glyph unicode="l" horiz-adv-x="530" d="M96 172q0 25 5 59t16 84l256 1202h166l-257 -1206q-9 -42 -12.5 -65t-3.5 -39q0 -41 22.5 -62.5t71.5 -21.5q26 0 45.5 3t36.5 9l-26 -131q-25 -8 -56.5 -13t-62.5 -5q-101 0 -151 50.5t-50 135.5z" />
<glyph unicode="m" horiz-adv-x="1757" d="M49 0l158 731q8 39 16 81.5t15 82t12 73.5t8 56h160q-5 -39 -12 -81.5t-12 -78.5q-6 -42 -13 -82h4q36 58 78 107t89 84.5t98 55.5t106 20q64 0 110 -19t76.5 -53.5t46.5 -83.5t19 -109q37 56 79.5 104.5t91 84t103 56t115.5 20.5q128 0 192 -74.5t64 -208.5 q0 -13 -3.5 -39.5t-9 -56.5t-11 -59.5t-9.5 -49.5l-121 -561h-164l125 600q4 17 8 38t7.5 41.5t5.5 38t2 27.5q0 79 -34 121.5t-106 42.5q-38 0 -78.5 -17.5t-79 -47.5t-74 -70t-65 -85.5t-50.5 -93t-31 -93.5l-107 -502h-166l127 600q4 17 8 38t7.5 41.5t5.5 38t2 27.5 q0 79 -35 121.5t-105 42.5q-39 0 -80 -17.5t-80 -48t-74.5 -71t-65 -86t-50 -93t-30.5 -93.5l-107 -500h-166z" />
<glyph unicode="n" horiz-adv-x="1151" d="M57 0l158 731q8 39 16 81.5t15 82t12 73.5t8 56h160q-5 -39 -12 -81.5t-12 -78.5q-6 -42 -13 -82h4q35 55 77.5 103.5t92 85t105 57.5t116.5 21q68 0 117 -20.5t81.5 -57.5t48 -89t15.5 -114q0 -15 -3.5 -41t-9 -56t-11 -59.5t-10.5 -50.5l-119 -561h-166l125 600 q4 16 8 37t7 42t5 38.5t2 27.5q0 76 -36.5 120t-108.5 44q-66 0 -131 -39t-120 -99t-94.5 -132t-53.5 -139l-107 -500h-166z" />
<glyph unicode="o" horiz-adv-x="1096" d="M78 379q0 141 40.5 263.5t114 213t176 142t226.5 51.5q87 0 157.5 -28t120.5 -80.5t77.5 -127t27.5 -168.5q0 -136 -38.5 -258t-111 -213.5t-176 -145t-233.5 -53.5q-88 0 -158.5 28t-120 80.5t-76 127t-26.5 168.5zM246 387q0 -62 15.5 -112.5t44 -86t70 -54.5t93.5 -19 q89 0 160 44.5t120 118t75 167.5t26 192q0 65 -16 115.5t-45 85t-70 53t-92 18.5q-88 0 -159 -45t-120 -118.5t-75.5 -167t-26.5 -191.5z" />
<glyph unicode="p" horiz-adv-x="1110" d="M-57 -475l250 1184q7 32 13 77t10.5 90.5t7.5 85.5t3 62h168q0 -17 -2.5 -46t-6.5 -60.5t-8 -61t-7 -47.5h4q71 121 160 180.5t194 59.5q70 0 126 -24t95.5 -72t60.5 -120t21 -167q0 -74 -16 -153.5t-49 -156.5t-82.5 -146t-116.5 -121.5t-152 -83t-188 -30.5 q-59 0 -116.5 11t-100.5 26l-102 -487h-166zM240 152q18 -8 43 -14.5t52 -11.5t55 -8t52 -3q69 0 127.5 23t105 62.5t82 93t59.5 114t36 125t12 126.5q0 54 -9.5 100t-31.5 79t-56.5 52t-84.5 19q-52 0 -97.5 -21.5t-84.5 -57.5t-71 -83.5t-57 -98.5t-42.5 -102.5 t-26.5 -96.5z" />
<glyph unicode="q" horiz-adv-x="1110" d="M78 358q0 66 13.5 143t44 154t79 148t118.5 125.5t163 87.5t211 33q54 0 104.5 -5t94 -12t79.5 -15.5t62 -15.5l-312 -1476h-166l101 473q9 49 21.5 103t23.5 96h-2q-34 -52 -70.5 -93.5t-77 -70t-86 -43.5t-98.5 -15q-70 0 -126.5 25t-95.5 74t-60 120t-21 164zM246 365 q0 -54 9 -100t30 -79t55 -52t84 -19q52 0 97 22t83 58.5t69 83.5t54.5 98.5t40 102.5t25.5 95l65 310q-35 9 -76 16.5t-94 7.5q-85 0 -151 -27t-115.5 -71.5t-83 -101.5t-54 -117.5t-29.5 -119.5t-9 -107z" />
<glyph unicode="r" horiz-adv-x="727" d="M51 0l144 680q9 42 18 88t16.5 92t13.5 88t9 76h162q-3 -30 -7 -63.5t-8 -65t-8 -57t-6 -39.5h4q32 57 65 103t69.5 78.5t77.5 50.5t89 18q28 0 55.5 -5.5t49.5 -11.5l-29 -182h-4q-20 12 -52.5 23.5t-64.5 11.5q-58 0 -111 -37.5t-96.5 -99t-76 -140.5t-50.5 -162 l-96 -446h-164z" />
<glyph unicode="s" horiz-adv-x="809" d="M16 37l33 156q20 -14 49.5 -28t64 -25t72 -18t74.5 -7q100 0 149.5 40t49.5 111q0 26 -7.5 48t-26.5 44t-50 44.5t-78 50.5q-102 62 -150.5 129.5t-48.5 152.5q0 62 23 118.5t68.5 100t114.5 69.5t161 26q72 0 136.5 -14t109.5 -36l-35 -155q-45 29 -101 47t-112 18 q-94 0 -145.5 -43t-51.5 -114q0 -29 9.5 -53t28 -45.5t47 -41.5t65.5 -43q112 -65 161.5 -133.5t49.5 -154.5q0 -58 -21.5 -113.5t-68.5 -98t-121.5 -68.5t-181.5 -26q-30 0 -66 4t-72.5 12t-70 19.5t-58.5 26.5z" />
<glyph unicode="t" horiz-adv-x="662" d="M98 885l31 139h168l53 250q4 2 30.5 9.5t58 17t58 17.5t29.5 9l-63 -303h258l-31 -139h-258l-115 -543q-6 -31 -12 -67t-6 -58q0 -51 22.5 -73.5t71.5 -22.5q12 0 31 4t39 10t39.5 13.5t34.5 13.5l-31 -144q-35 -15 -79.5 -25.5t-84.5 -10.5q-57 0 -97 14.5t-65.5 41.5 t-37 65.5t-11.5 86.5q0 29 5.5 67.5t13.5 70.5l118 557h-170z" />
<glyph unicode="u" horiz-adv-x="1143" d="M98 258q0 13 4 39t9 56t11.5 59.5t10.5 50.5l119 561h166l-127 -600q-4 -16 -8 -37t-7.5 -42t-5.5 -38.5t-2 -27.5q0 -75 36.5 -119.5t109.5 -44.5q44 0 88 18t85.5 48.5t78.5 71t67 86t51 93.5t31 92l107 500h165l-157 -733q-9 -39 -16.5 -81t-14.5 -81t-12 -73t-8 -56 h-160q5 39 11.5 81.5t12.5 78.5q7 42 13 82h-4q-35 -55 -77.5 -103.5t-92 -85t-105 -57.5t-115.5 -21q-66 0 -115.5 20.5t-82.5 57.5t-49.5 89t-16.5 116z" />
<glyph unicode="v" horiz-adv-x="969" d="M137 1024h166l90 -645q3 -19 5.5 -43t5 -49t3.5 -49t1 -43h4q8 18 18.5 41t23.5 47.5t26.5 49.5t25.5 46l366 645h187l-621 -1024h-139z" />
<glyph unicode="w" horiz-adv-x="1475" d="M125 1024h158l49 -766q2 -22 0.5 -47.5t-4.5 -48.5h6q8 23 18.5 51.5t20.5 48.5l399 762h146l57 -768q2 -23 -0.5 -49.5t-5.5 -46.5h8q2 10 6.5 22.5t9.5 26t10.5 26.5t10.5 23l368 766h166l-524 -1024h-162l-59 727q-1 9 -1 23t0.5 28t2 27.5t2.5 21.5h-4q-3 -10 -8 -23 t-11 -27.5t-12.5 -28t-11.5 -23.5l-383 -725h-162z" />
<glyph unicode="x" horiz-adv-x="932" d="M-86 0l461 510l-230 514h181l123 -326q9 -24 18 -52t14 -44h4q6 7 14 17.5t17 22.5t18.5 24t18.5 22l278 336h187l-459 -524l236 -500l-181 -2l-129 321q-6 16 -16.5 43t-19.5 50h-5q-7 -10 -16.5 -22.5t-18.5 -24.5t-17.5 -22.5t-14.5 -18.5l-268 -324h-195z" />
<glyph unicode="y" horiz-adv-x="991" d="M-160 -467l31 145q15 -8 39 -13t47 -5q69 0 124.5 38t104.5 116l123 190l-186 1020h170l119 -786q3 -22 3.5 -42.5t-1.5 -35.5h6q5 12 15.5 34t23.5 42l454 788h181l-727 -1194q-46 -75 -93 -132.5t-98.5 -97.5t-110 -60.5t-128.5 -20.5q-23 0 -51.5 4.5t-45.5 9.5z" />
<glyph unicode="z" horiz-adv-x="926" d="M-78 0l12 53l768 832h-534l31 139h792l-10 -49l-768 -836h582l-31 -139h-842z" />
<glyph unicode="{" horiz-adv-x="623" d="M72 504l26 114q83 5 131.5 54.5t71.5 156.5l61 289q20 95 56 155.5t84.5 96t107.5 49.5t125 15l-26 -125q-77 0 -127.5 -45t-73.5 -152l-62 -283q-24 -112 -73 -181.5t-123 -92.5v-4q38 -19 64 -61.5t26 -116.5q0 -22 -2 -45t-8 -49l-56 -259q-5 -26 -8.5 -49t-3.5 -43 q0 -60 31.5 -87.5t97.5 -30.5l-26 -121q-66 1 -113.5 18t-78 46.5t-44.5 69t-14 87.5q0 22 2.5 43.5t7.5 44.5l61 285q5 21 7 41t2 38q0 63 -30 100t-93 42z" />
<glyph unicode="|" horiz-adv-x="492" d="M174 -481v2048h145v-2048h-145z" />
<glyph unicode="}" horiz-adv-x="623" d="M-111 -309l25 123q78 1 129 46t74 152l59 281q25 112 74 182.5t125 93.5v4q-38 19 -65 61.5t-27 117.5q0 20 2.5 44t7.5 50l55 258q12 50 12 90q0 60 -30 88.5t-97 30.5l25 121q67 -1 114.5 -17.5t77.5 -45.5t44 -69t14 -88q0 -21 -2.5 -43t-7.5 -45l-60 -284 q-5 -23 -7.5 -42.5t-2.5 -37.5q0 -65 30.5 -101.5t92.5 -39.5l-27 -117q-41 -2 -73.5 -15t-57.5 -38.5t-42.5 -64.5t-28.5 -93l-62 -287q-20 -95 -55.5 -156t-83.5 -96t-107 -49t-125 -14z" />
<glyph unicode="~" horiz-adv-x="1403" d="M225 440q3 68 22 125t54 98t86.5 64t118.5 23q38 0 71 -7.5t61.5 -20t53.5 -28.5t49 -32q33 -22 58.5 -39.5t47.5 -28.5t44 -17t47 -6q31 0 56 13t42.5 37t27.5 57t11 72h135q-3 -67 -21.5 -124t-53 -98t-86 -64.5t-119.5 -23.5q-39 0 -73 8.5t-65.5 23.5t-61.5 35 t-62 42q-18 12 -37.5 23.5t-40 21.5t-42 16t-42.5 6q-69 0 -105.5 -45.5t-40.5 -130.5h-135z" />
<glyph unicode="&#xa1;" horiz-adv-x="653" d="M49 -399l238 1030h135l-201 -1030h-172zM301 942q0 23 8.5 43.5t23.5 35.5t35.5 23.5t43.5 8.5q22 0 41.5 -8.5t34.5 -23.5t23.5 -35.5t8.5 -43.5t-8.5 -43.5t-23.5 -36t-34.5 -24.5t-41.5 -9q-23 0 -43.5 9t-35.5 24.5t-23.5 36t-8.5 43.5z" />
<glyph unicode="&#xa2;" d="M190 573q0 86 14.5 159.5t40.5 136.5t62 116t78 96q34 34 74.5 60t85 44t91 28.5t91.5 13.5l39 186h127l-39 -190q62 -8 111 -23.5t73 -34.5l-39 -172q-29 32 -74 56.5t-102 33.5l-166 -780q60 6 115.5 30t112.5 66l-33 -168q-43 -27 -99.5 -47.5t-125.5 -25.5l-43 -207 h-127l43 211q-75 13 -132.5 49.5t-97 90.5t-60 123t-20.5 148zM362 586q0 -113 46.5 -181t123.5 -90l164 764q-60 -12 -111 -41.5t-91 -74.5q-31 -35 -56 -78.5t-41.5 -92.5t-25.5 -101.5t-9 -104.5z" />
<glyph unicode="&#xa3;" d="M10 0l31 135q119 34 189.5 115t95.5 199l39 186h-197l29 141h198l56 260q23 106 66.5 185.5t103 132t134 78.5t158.5 26q70 0 127 -12t93 -29l-33 -155q-42 27 -91.5 42t-103.5 15q-110 0 -186 -74.5t-111 -240.5l-49 -228h297l-31 -141h-295l-41 -184 q-23 -113 -83 -190.5t-154 -121.5h688l-29 -139h-901z" />
<glyph unicode="&#xa4;" horiz-adv-x="1139" d="M137 354l137 133q-44 66 -59.5 128.5t-15.5 109.5q0 50 15.5 112t59.5 126l-137 135l92 96l138 -137q60 43 121.5 60.5t117.5 17.5t119 -19t119 -59l139 137l92 -96l-137 -135q46 -69 61 -130.5t15 -107.5q0 -48 -15.5 -108.5t-60.5 -129.5l137 -133l-92 -96l-139 137 q-56 -40 -117 -58t-121 -18q-56 0 -118.5 16.5t-120.5 59.5l-138 -137zM332 727q0 -57 21.5 -107t59 -87t87 -58.5t106.5 -21.5t107.5 21.5t88 58.5t59.5 87t22 107q0 60 -23.5 110.5t-62.5 86.5t-89 56.5t-102 20.5q-57 0 -107 -21.5t-87 -59t-58.5 -87.5t-21.5 -106z" />
<glyph unicode="&#xa5;" d="M84 293l29 139h342l43 207h-342l30 139h291l-213 656h174l146 -525q11 -38 17 -63.5t9 -46.5h6q14 28 32.5 56t41.5 60l359 519h190l-498 -656h285l-29 -139h-335l-44 -207h334l-28 -139h-334l-64 -293h-164l64 293h-342z" />
<glyph unicode="&#xa6;" horiz-adv-x="492" d="M174 371h145v-852h-145v852zM174 715v852h145v-852h-145z" />
<glyph unicode="&#xa7;" horiz-adv-x="918" d="M43 -16l31 151q23 -15 51.5 -28.5t59 -23t61.5 -15t59 -5.5q103 0 158 41t55 115q0 33 -11.5 60.5t-33.5 52t-55 49t-76 51.5q-35 23 -66 50.5t-54 60.5t-36.5 72t-13.5 85q0 56 19 102t50.5 82.5t73 63.5t86.5 45q-27 35 -48 80t-21 94q0 88 32.5 149.5t85 100.5 t119 56.5t133.5 17.5q26 0 55.5 -3t59.5 -8t57.5 -13t49.5 -17l-31 -145q-37 23 -89.5 40t-105.5 17q-46 0 -85 -10t-67 -30.5t-43.5 -50.5t-15.5 -69q0 -37 13.5 -66t36 -53t52.5 -44.5t62 -41.5q58 -37 95 -72t58.5 -70t29.5 -70.5t8 -73.5q0 -50 -17.5 -96t-48 -85 t-71.5 -68.5t-89 -47.5q29 -41 43.5 -78.5t14.5 -85.5q0 -61 -21 -118t-67 -101t-119.5 -70.5t-177.5 -26.5q-36 0 -72.5 4.5t-69.5 11.5t-60 16t-44 18zM330 733q0 -28 4.5 -50.5t19 -44.5t40.5 -45t69 -52q20 -14 40.5 -26.5t37.5 -31.5q74 34 108.5 90t34.5 115 q0 21 -5 42.5t-19 44.5t-38 46t-63 47q-22 14 -39.5 26.5t-40.5 29.5q-68 -28 -108.5 -76.5t-40.5 -114.5z" />
<glyph unicode="&#xa8;" horiz-adv-x="715" d="M215 1317q0 21 8 39t21.5 31t31.5 20.5t37 7.5q21 0 39.5 -7.5t32 -21t21.5 -31t8 -38.5t-8 -38.5t-21.5 -31t-32 -21t-39.5 -7.5q-19 0 -37 7.5t-31.5 20.5t-21.5 31t-8 39zM602 1317q0 21 8 39t21 31t30.5 20.5t36.5 7.5q21 0 39.5 -7.5t32 -21t21.5 -31t8 -38.5 q0 -42 -29 -70t-70 -28q-40 0 -69 27.5t-29 70.5z" />
<glyph unicode="&#xa9;" horiz-adv-x="1862" d="M219 713q0 104 26 200t74 178.5t116 150t151.5 116t181.5 74.5t205 26q155 0 291 -54t237.5 -152t160 -233.5t58.5 -299.5q0 -105 -26 -201.5t-74.5 -179t-116 -149.5t-151 -114.5t-180.5 -73.5t-203 -26q-161 0 -298.5 55.5t-238 154t-157 233.5t-56.5 295zM307 715 q0 -96 23.5 -182.5t67 -160.5t104 -133.5t134.5 -101t158.5 -64t176.5 -22.5q135 0 255 50t209.5 139t142 210.5t52.5 264.5t-52 264t-141 209.5t-209 138t-257 49.5q-144 0 -266 -51t-210.5 -140.5t-138 -210t-49.5 -259.5zM510 692q0 130 40.5 230.5t111 169.5t165.5 105 t203 36q36 0 71 -5t66 -12.5t56.5 -17t42.5 -18.5v-150q-21 16 -49.5 29.5t-61.5 23t-69.5 14.5t-73.5 5q-69 0 -133.5 -24t-114.5 -72.5t-80.5 -122.5t-30.5 -174q0 -92 29.5 -164t80 -121t117 -74.5t140.5 -25.5q32 0 67 6t68.5 16.5t63 24.5t51.5 30v-135 q-18 -10 -44.5 -22.5t-61 -22.5t-75.5 -17t-88 -7q-103 0 -193 37t-156 103t-104 157t-38 198z" />
<glyph unicode="&#xaa;" horiz-adv-x="893" d="M197 969q0 39 8.5 90t28.5 105t53 106.5t83 93.5t118 66.5t157 25.5q29 0 64 -2.5t71 -6.5t70.5 -10t64.5 -12l-98 -483q-5 -26 -10.5 -59t-10 -65.5t-7.5 -60t-3 -42.5h-137q1 13 2.5 32t4 38.5t4.5 38.5t4 32h-2q-47 -69 -111 -114.5t-145 -45.5q-100 0 -154.5 71 t-54.5 202zM334 977q0 -37 6.5 -69t21 -54.5t38 -35.5t57.5 -13q51 0 95 32.5t78 80.5t57.5 103.5t33.5 100.5l43 209q-26 6 -61.5 10.5t-63.5 4.5q-57 0 -102 -18t-79 -48.5t-57.5 -69t-38.5 -79.5t-21.5 -81t-6.5 -73z" />
<glyph unicode="&#xab;" horiz-adv-x="1053" d="M88 537l365 344h176l-379 -355l223 -325h-158zM494 537l364 344h176l-379 -355l222 -325h-156z" />
<glyph unicode="&#xac;" horiz-adv-x="1403" d="M246 686v131h940v-563h-131v432h-809z" />
<glyph unicode="&#xad;" horiz-adv-x="819" d="M131 506l29 129h547l-29 -129h-547z" />
<glyph unicode="&#xae;" horiz-adv-x="1862" d="M219 713q0 104 26 200t74 178.5t116 150t151.5 116t181.5 74.5t205 26q155 0 291 -54t237.5 -152t160 -233.5t58.5 -299.5q0 -105 -26 -201.5t-74.5 -179t-116 -149.5t-151 -114.5t-180.5 -73.5t-203 -26q-161 0 -298.5 55.5t-238 154t-157 233.5t-56.5 295zM307 715 q0 -96 23.5 -182.5t67 -160.5t104 -133.5t134.5 -101t158.5 -64t176.5 -22.5q135 0 255 50t209.5 139t142 210.5t52.5 264.5t-52 264t-141 209.5t-209 138t-257 49.5q-144 0 -266 -51t-210.5 -140.5t-138 -210t-49.5 -259.5zM676 248v954h266q96 0 162.5 -22t108.5 -58 t60.5 -83t18.5 -97q0 -48 -16 -90t-46.5 -76t-75.5 -58t-103 -36v-4q21 -4 40.5 -15.5t38 -32.5t38 -52t40.5 -76l125 -254h-162l-104 229q-15 34 -32.5 65t-38.5 55t-45.5 38t-53.5 14h-88v-401h-133zM809 762h143q43 0 79 10.5t62.5 31.5t41 51.5t14.5 70.5q0 39 -10.5 69 t-35.5 50.5t-67.5 31t-107.5 10.5h-119v-325z" />
<glyph unicode="&#xaf;" horiz-adv-x="715" d="M240 1219l16 108h508l-16 -108h-508z" />
<glyph unicode="&#xb0;" horiz-adv-x="772" d="M246 1176q0 57 21.5 107t59 87t88 58.5t107.5 21.5q58 0 108.5 -21.5t88.5 -58.5t60 -87t22 -107q0 -58 -22 -108.5t-60 -88.5t-88.5 -60t-108.5 -22q-57 0 -107.5 22t-88 60t-59 88.5t-21.5 108.5zM365 1176q0 -33 12.5 -62.5t34 -51.5t50 -35t60.5 -13t61 13t51 35 t35 51.5t13 62.5t-12.5 61.5t-34.5 50t-51 33.5t-62 12q-32 0 -60.5 -12t-50 -33.5t-34 -50t-12.5 -61.5z" />
<glyph unicode="&#xb1;" horiz-adv-x="1403" d="M256 0v133h940v-133h-940zM256 651v133h406v404h131v-404h403v-133h-403v-403h-131v403h-406z" />
<glyph unicode="&#xb2;" horiz-adv-x="793" d="M184 884l24 110l297 250q45 38 83.5 72.5t66.5 69t43.5 69.5t15.5 74q0 43 -31 72.5t-88 29.5q-55 0 -114 -25.5t-109 -60.5l33 152q35 20 89 38.5t126 18.5q59 0 103 -16t73 -44t43.5 -66t14.5 -81q0 -61 -23 -112t-61.5 -97t-88 -88t-102.5 -84l-197 -155l-2 -4h381 l-28 -123h-549z" />
<glyph unicode="&#xb3;" horiz-adv-x="788" d="M219 910l28 133q18 -12 43.5 -22.5t54.5 -19t60 -13t59 -4.5q53 0 89.5 12.5t59 33t32.5 46t10 51.5q0 30 -10.5 54t-34 41.5t-60 26.5t-88.5 9h-84l27 121h84q55 0 97 13t70 34.5t42 49t14 55.5q0 43 -31 72.5t-100 29.5q-54 0 -102.5 -16t-93.5 -41l30 141 q19 8 43 14.5t49.5 11.5t51.5 8t49 3q55 0 99.5 -14t76 -39.5t48.5 -62.5t17 -83q0 -86 -58 -144t-157 -83v-4q156 -41 156 -197q0 -44 -17 -91t-56 -85.5t-103 -63t-158 -24.5q-27 0 -61 3.5t-68 9.5t-63 15t-45 19z" />
<glyph unicode="&#xb4;" horiz-adv-x="715" d="M332 1219l289 327h161l-327 -327h-123z" />
<glyph unicode="&#xb5;" horiz-adv-x="1175" d="M-48 -395l300 1419h166l-127 -600q-4 -16 -8 -37t-7.5 -42t-5.5 -38.5t-2 -27.5q0 -75 36.5 -119.5t109.5 -44.5q44 0 88 18t85.5 48.5t78 71t66.5 86t51.5 93.5t31.5 92l107 500h165l-153 -713q-7 -31 -12 -65t-5 -54q0 -22 8 -37t20 -24t27 -12.5t30 -3.5q18 0 36.5 3 t35.5 9l-26 -131q-25 -8 -57 -13t-63 -5q-96 0 -138 45.5t-42 120.5q0 9 0.5 22.5t2 27.5t3 27t2.5 21h-4q-31 -56 -70.5 -104.5t-86 -84.5t-100.5 -57t-114 -21t-105 27t-62 71l-100 -468h-162z" />
<glyph unicode="&#xb6;" horiz-adv-x="938" d="M156 1169q0 63 21.5 112.5t57.5 83t82 51.5t95 18h493v-103h-127v-1331h-106v1331h-158v-1331h-108v903q-52 0 -97.5 19.5t-79.5 54.5t-53.5 84t-19.5 108z" />
<glyph unicode="&#xb7;" horiz-adv-x="446" d="M135 623q0 22 8.5 42t23.5 35t35 24t42 9q23 0 43 -9t35 -24t23.5 -35t8.5 -42q0 -23 -8.5 -43.5t-23.5 -35.5t-34.5 -23.5t-41.5 -8.5q-23 0 -43.5 8.5t-35.5 23.5t-23.5 35.5t-8.5 43.5z" />
<glyph unicode="&#xb8;" horiz-adv-x="715" d="M37 -428l18 88q41 -6 76 -6q87 0 128.5 25t41.5 67q0 35 -28.5 55.5t-90.5 20.5q-14 0 -27.5 -1t-27.5 -3l39 182h96l-24 -104q37 0 69.5 -8.5t57 -25.5t39 -42t14.5 -58q0 -89 -75 -142.5t-218 -53.5q-20 0 -43 1.5t-45 4.5z" />
<glyph unicode="&#xb9;" horiz-adv-x="795" d="M237 884l25 112h182l127 592l-207 -55l27 125l348 96l-164 -758h190l-24 -112h-504z" />
<glyph unicode="&#xba;" horiz-adv-x="915" d="M215 1014q0 91 28 171t80.5 140t128.5 94.5t173 34.5q76 0 134.5 -23t98 -64t60 -96t20.5 -120q0 -82 -23 -163.5t-72.5 -146t-127 -105t-185.5 -40.5q-73 0 -131 23.5t-99 65.5t-63 100.5t-22 128.5zM350 1018q0 -48 13 -86.5t37 -66.5t58.5 -43t76.5 -15q75 0 126.5 31 t83 79t45 107.5t13.5 116.5q0 41 -11 78t-34 64.5t-58.5 43.5t-83.5 16q-66 0 -116 -27t-83 -72.5t-50 -104t-17 -121.5z" />
<glyph unicode="&#xbb;" horiz-adv-x="1053" d="M18 203l381 354l-223 326h156l227 -336l-364 -344h-177zM424 203l381 354l-225 326h155l230 -336l-365 -344h-176z" />
<glyph unicode="&#xbc;" horiz-adv-x="1876" d="M174 584l25 112h182l127 592l-207 -55l27 125l348 96l-164 -758h190l-24 -112h-504zM1049 206l18 92l481 553h160l-115 -537h113l-23 -108h-112l-45 -205h-131l45 205h-391zM1208 314h254l70 326q5 22 11.5 47t12.5 43l-4 2q-8 -15 -21 -33t-30 -36zM349 0l1164 1434h145 l-1161 -1434h-148z" />
<glyph unicode="&#xbd;" horiz-adv-x="1939" d="M174 584l25 112h182l127 592l-207 -55l27 125l348 96l-164 -758h190l-24 -112h-504zM1129 1l24 110l297 250q45 38 83.5 72.5t66.5 69t43.5 69.5t15.5 74q0 43 -31 72.5t-88 29.5q-55 0 -114 -25.5t-109 -60.5l33 152q35 20 89 38.5t126 18.5q59 0 103 -16t73 -44 t43.5 -66t14.5 -81q0 -61 -23 -112t-61.5 -97t-88 -88t-102.5 -84l-197 -155l-2 -4h381l-28 -123h-549zM329 0l1164 1434h145l-1161 -1434h-148z" />
<glyph unicode="&#xbe;" horiz-adv-x="1968" d="M156 610l28 133q18 -12 43.5 -22.5t54.5 -19t60 -13t59 -4.5q53 0 89.5 12.5t59 33t32.5 46t10 51.5q0 30 -10.5 54t-34 41.5t-60 26.5t-88.5 9h-84l27 121h84q55 0 97 13t70 34.5t42 49t14 55.5q0 43 -31 72.5t-100 29.5q-54 0 -102.5 -16t-93.5 -41l30 141 q19 8 43 14.5t49.5 11.5t51.5 8t49 3q55 0 99.5 -14t76 -39.5t48.5 -62.5t17 -83q0 -86 -58 -144t-157 -83v-4q156 -41 156 -197q0 -44 -17 -91t-56 -85.5t-103 -63t-158 -24.5q-27 0 -61 3.5t-68 9.5t-63 15t-45 19zM1135 206l18 92l481 553h160l-115 -537h113l-23 -108 h-112l-45 -205h-131l45 205h-391zM1294 314h254l70 326q5 22 11.5 47t12.5 43l-4 2q-8 -15 -21 -33t-30 -36zM387 0l1164 1434h145l-1161 -1434h-148z" />
<glyph unicode="&#xbf;" horiz-adv-x="881" d="M-31 -111q0 62 15.5 116t48.5 103.5t83.5 97t119.5 95.5q53 37 90 70.5t62.5 71t42 83t28.5 105.5h149q-14 -72 -31.5 -130t-45.5 -106.5t-69 -90t-102 -81.5q-63 -41 -106.5 -80t-71.5 -77t-40.5 -77.5t-12.5 -82.5q0 -45 15 -81t42 -62t65 -40t83 -14q68 0 141 22 t141 70l-18 -168q-62 -27 -136 -44t-149 -17q-78 0 -141.5 24t-108.5 67t-69.5 100.5t-24.5 125.5zM477 942q0 23 9 43.5t24 35.5t35.5 23.5t42.5 8.5q23 0 43 -8.5t35 -23.5t23.5 -35.5t8.5 -43.5t-8.5 -43.5t-23.5 -36t-35 -24.5t-43 -9q-22 0 -42.5 9t-35.5 24.5t-24 36 t-9 43.5z" />
<glyph unicode="&#xc0;" horiz-adv-x="1294" d="M-104 0l854 1434h176l250 -1434h-177l-65 401h-608l-232 -401h-198zM412 553h495l-92 610q-1 10 -1.5 23t-0.5 26v26v22h-4q-3 -9 -8 -21.5t-11 -26t-12 -26.5l-12 -23zM658 1894h153l207 -327h-121z" />
<glyph unicode="&#xc1;" horiz-adv-x="1294" d="M-104 0l854 1434h176l250 -1434h-177l-65 401h-608l-232 -401h-198zM412 553h495l-92 610q-1 10 -1.5 23t-0.5 26v26v22h-4q-3 -9 -8 -21.5t-11 -26t-12 -26.5l-12 -23zM678 1567l289 327h161l-327 -327h-123z" />
<glyph unicode="&#xc2;" horiz-adv-x="1294" d="M-104 0l854 1434h176l250 -1434h-177l-65 401h-608l-232 -401h-198zM412 553h495l-92 610q-1 10 -1.5 23t-0.5 26v26v22h-4q-3 -9 -8 -21.5t-11 -26t-12 -26.5l-12 -23zM574 1567l283 331h133l145 -331h-113l-114 231l-213 -231h-121z" />
<glyph unicode="&#xc3;" horiz-adv-x="1294" d="M-104 0l854 1434h176l250 -1434h-177l-65 401h-608l-232 -401h-198zM412 553h495l-92 610q-1 10 -1.5 23t-0.5 26v26v22h-4q-3 -9 -8 -21.5t-11 -26t-12 -26.5l-12 -23zM528 1567q3 48 21.5 89t48.5 70t70.5 45.5t87.5 16.5q44 0 73.5 -15t54.5 -33.5t49.5 -33.5 t57.5 -15q22 0 41 9t34 24.5t24 36.5t12 45h96q-3 -45 -20.5 -85t-46 -70t-67 -47t-83.5 -17q-48 0 -80.5 14.5t-58 31.5t-49 31.5t-54.5 14.5q-51 0 -80.5 -33t-34.5 -79h-96z" />
<glyph unicode="&#xc4;" horiz-adv-x="1294" d="M-104 0l854 1434h176l250 -1434h-177l-65 401h-608l-232 -401h-198zM412 553h495l-92 610q-1 10 -1.5 23t-0.5 26v26v22h-4q-3 -9 -8 -21.5t-11 -26t-12 -26.5l-12 -23zM567 1665q0 21 8 39t21.5 31t31.5 20.5t37 7.5q21 0 39.5 -7.5t32 -21t21.5 -31t8 -38.5t-8 -38.5 t-21.5 -31t-32 -21t-39.5 -7.5q-19 0 -37 7.5t-31.5 20.5t-21.5 31t-8 39zM954 1665q0 21 8 39t21 31t30.5 20.5t36.5 7.5q21 0 39.5 -7.5t32 -21t21.5 -31t8 -38.5q0 -42 -29 -70t-70 -28q-40 0 -69 27.5t-29 70.5z" />
<glyph unicode="&#xc5;" horiz-adv-x="1294" d="M-104 0l825 1384q-38 23 -62 63.5t-24 94.5q0 45 16.5 82t45 63t66.5 40t81 14q45 0 82 -14.5t64 -40t42 -61t15 -77.5q0 -59 -31 -104t-80 -68l240 -1376h-177l-65 401h-608l-232 -401h-198zM412 553h495l-92 610q-1 10 -1.5 23t-0.5 26v26v22h-4q-3 -9 -8 -21.5 t-11 -26t-12 -26.5l-12 -23zM727 1548q0 -55 31.5 -84.5t81.5 -29.5q49 0 81.5 32.5t32.5 81.5q0 25 -9 45.5t-24.5 35t-36 22.5t-44.5 8q-51 0 -82 -31.5t-31 -79.5z" />
<glyph unicode="&#xc6;" horiz-adv-x="1751" d="M-121 0l1067 1434h887l-33 -154h-555l-104 -487h514l-33 -152h-514l-104 -489h587l-30 -152h-760l86 401h-508l-293 -401h-207zM494 557h426l151 723h-55z" />
<glyph unicode="&#xc7;" horiz-adv-x="1309" d="M133 604q0 188 59.5 345t169 270t263 176t340.5 63q128 0 226.5 -27.5t166.5 -62.5l-37 -172q-29 19 -66 39t-82.5 36t-99 26t-115.5 10q-150 0 -269.5 -53t-203.5 -146t-129 -218.5t-45 -271.5q0 -119 33 -210.5t93.5 -154t145 -94.5t187.5 -32q66 0 120 7.5t100 21 t86.5 32t78.5 39.5l-39 -176q-87 -38 -175.5 -57t-190.5 -19l-17 -79q36 0 68.5 -8.5t56.5 -25.5t38.5 -42t14.5 -58q0 -89 -74.5 -142.5t-218.5 -53.5q-20 0 -43 1.5t-45 4.5l19 88q39 -6 76 -6q86 0 128 25t42 67q0 35 -28.5 55.5t-90.5 20.5q-13 0 -27 -1t-28 -3l34 162 q-119 13 -215.5 63t-164.5 131t-105 190t-37 240z" />
<glyph unicode="&#xc8;" horiz-adv-x="1022" d="M74 0l303 1434h727l-33 -152h-553l-104 -489h512l-33 -152h-512l-105 -489h588l-30 -152h-760zM561 1894h153l207 -327h-121z" />
<glyph unicode="&#xc9;" horiz-adv-x="1022" d="M74 0l303 1434h727l-33 -152h-553l-104 -489h512l-33 -152h-512l-105 -489h588l-30 -152h-760zM645 1567l289 327h161l-327 -327h-123z" />
<glyph unicode="&#xca;" horiz-adv-x="1022" d="M74 0l303 1434h727l-33 -152h-553l-104 -489h512l-33 -152h-512l-105 -489h588l-30 -152h-760zM492 1567l283 331h133l145 -331h-113l-114 231l-213 -231h-121z" />
<glyph unicode="&#xcb;" horiz-adv-x="1022" d="M74 0l303 1434h727l-33 -152h-553l-104 -489h512l-33 -152h-512l-105 -489h588l-30 -152h-760zM481 1665q0 21 8 39t21.5 31t31.5 20.5t37 7.5q21 0 39.5 -7.5t32 -21t21.5 -31t8 -38.5t-8 -38.5t-21.5 -31t-32 -21t-39.5 -7.5q-19 0 -37 7.5t-31.5 20.5t-21.5 31t-8 39z M868 1665q0 21 8 39t21 31t30.5 20.5t36.5 7.5q21 0 39.5 -7.5t32 -21t21.5 -31t8 -38.5q0 -42 -29 -70t-70 -28q-40 0 -69 27.5t-29 70.5z" />
<glyph unicode="&#xcc;" horiz-adv-x="545" d="M74 0l303 1434h174l-305 -1434h-172zM309 1894h153l207 -327h-121z" />
<glyph unicode="&#xcd;" horiz-adv-x="545" d="M74 0l303 1434h174l-305 -1434h-172zM311 1567l289 327h161l-327 -327h-123z" />
<glyph unicode="&#xce;" horiz-adv-x="545" d="M74 0l303 1434h174l-305 -1434h-172zM205 1567l283 331h133l145 -331h-113l-114 231l-213 -231h-121z" />
<glyph unicode="&#xcf;" horiz-adv-x="545" d="M74 0l303 1434h174l-305 -1434h-172zM203 1665q0 21 8 39t21.5 31t31.5 20.5t37 7.5q21 0 39.5 -7.5t32 -21t21.5 -31t8 -38.5t-8 -38.5t-21.5 -31t-32 -21t-39.5 -7.5q-19 0 -37 7.5t-31.5 20.5t-21.5 31t-8 39zM590 1665q0 21 8 39t21 31t30.5 20.5t36.5 7.5 q21 0 39.5 -7.5t32 -21t21.5 -31t8 -38.5q0 -42 -29 -70t-70 -28q-40 0 -69 27.5t-29 70.5z" />
<glyph unicode="&#xd0;" horiz-adv-x="1458" d="M47 649l29 152h168l135 633h391q143 0 259.5 -41.5t199 -118t127.5 -185.5t45 -245q0 -108 -22 -213t-67.5 -198.5t-116 -173t-168 -137t-223 -90t-280.5 -32.5h-450l139 649h-166zM276 152h252q179 0 310 51.5t217 142.5t128 215.5t42 269.5q0 105 -31 189t-92.5 142 t-152.5 89t-212 31h-219l-104 -481h342l-31 -152h-342z" />
<glyph unicode="&#xd1;" horiz-adv-x="1538" d="M74 0l303 1434h201l507 -1125q5 -9 10 -21.5t10 -26t9.5 -26.5t7.5 -22h4q1 12 3 28t4 33.5t5 34.5t5 29l233 1096h170l-305 -1434h-186l-529 1149q-3 8 -7 19.5t-8 24.5t-7 25t-4 19h-6q-1 -10 -2.5 -24.5t-3.5 -29.5t-4.5 -29.5t-4.5 -25.5l-239 -1128h-166zM655 1567 q3 48 21.5 89t48.5 70t70.5 45.5t87.5 16.5q44 0 73.5 -15t54.5 -33.5t49.5 -33.5t57.5 -15q22 0 41 9t34 24.5t24 36.5t12 45h96q-3 -45 -20.5 -85t-46 -70t-67 -47t-83.5 -17q-48 0 -80.5 14.5t-58 31.5t-49 31.5t-54.5 14.5q-51 0 -80.5 -33t-34.5 -79h-96z" />
<glyph unicode="&#xd2;" horiz-adv-x="1544" d="M137 586q0 208 67.5 373t188.5 286q98 98 226.5 155.5t291.5 57.5q132 0 238.5 -45t181.5 -126t115.5 -192t40.5 -243q0 -93 -17 -184.5t-49 -176.5t-78.5 -161t-105.5 -137q-48 -50 -104 -90.5t-120 -69t-137 -43.5t-157 -15q-135 0 -243 46.5t-183.5 128t-115.5 193.5 t-40 243zM313 584q0 -100 27.5 -184t80 -144.5t129.5 -94.5t177 -34q111 0 212.5 44.5t178.5 131.5q48 54 83.5 120.5t59.5 138t36 144.5t12 140q0 107 -29 192t-83 145t-130 92t-170 32q-111 0 -212 -48t-179 -133q-44 -48 -79.5 -110t-61 -132t-39 -146t-13.5 -154z M746 1894h153l207 -327h-121z" />
<glyph unicode="&#xd3;" horiz-adv-x="1544" d="M137 586q0 208 67.5 373t188.5 286q98 98 226.5 155.5t291.5 57.5q132 0 238.5 -45t181.5 -126t115.5 -192t40.5 -243q0 -93 -17 -184.5t-49 -176.5t-78.5 -161t-105.5 -137q-48 -50 -104 -90.5t-120 -69t-137 -43.5t-157 -15q-135 0 -243 46.5t-183.5 128t-115.5 193.5 t-40 243zM313 584q0 -100 27.5 -184t80 -144.5t129.5 -94.5t177 -34q111 0 212.5 44.5t178.5 131.5q48 54 83.5 120.5t59.5 138t36 144.5t12 140q0 107 -29 192t-83 145t-130 92t-170 32q-111 0 -212 -48t-179 -133q-44 -48 -79.5 -110t-61 -132t-39 -146t-13.5 -154z M740 1567l289 327h161l-327 -327h-123z" />
<glyph unicode="&#xd4;" horiz-adv-x="1544" d="M137 586q0 208 67.5 373t188.5 286q98 98 226.5 155.5t291.5 57.5q132 0 238.5 -45t181.5 -126t115.5 -192t40.5 -243q0 -93 -17 -184.5t-49 -176.5t-78.5 -161t-105.5 -137q-48 -50 -104 -90.5t-120 -69t-137 -43.5t-157 -15q-135 0 -243 46.5t-183.5 128t-115.5 193.5 t-40 243zM313 584q0 -100 27.5 -184t80 -144.5t129.5 -94.5t177 -34q111 0 212.5 44.5t178.5 131.5q48 54 83.5 120.5t59.5 138t36 144.5t12 140q0 107 -29 192t-83 145t-130 92t-170 32q-111 0 -212 -48t-179 -133q-44 -48 -79.5 -110t-61 -132t-39 -146t-13.5 -154z M627 1567l283 331h133l145 -331h-113l-114 231l-213 -231h-121z" />
<glyph unicode="&#xd5;" horiz-adv-x="1544" d="M137 586q0 208 67.5 373t188.5 286q98 98 226.5 155.5t291.5 57.5q132 0 238.5 -45t181.5 -126t115.5 -192t40.5 -243q0 -93 -17 -184.5t-49 -176.5t-78.5 -161t-105.5 -137q-48 -50 -104 -90.5t-120 -69t-137 -43.5t-157 -15q-135 0 -243 46.5t-183.5 128t-115.5 193.5 t-40 243zM313 584q0 -100 27.5 -184t80 -144.5t129.5 -94.5t177 -34q111 0 212.5 44.5t178.5 131.5q48 54 83.5 120.5t59.5 138t36 144.5t12 140q0 107 -29 192t-83 145t-130 92t-170 32q-111 0 -212 -48t-179 -133q-44 -48 -79.5 -110t-61 -132t-39 -146t-13.5 -154z M616 1567q3 48 21.5 89t48.5 70t70.5 45.5t87.5 16.5q44 0 73.5 -15t54.5 -33.5t49.5 -33.5t57.5 -15q22 0 41 9t34 24.5t24 36.5t12 45h96q-3 -45 -20.5 -85t-46 -70t-67 -47t-83.5 -17q-48 0 -80.5 14.5t-58 31.5t-49 31.5t-54.5 14.5q-51 0 -80.5 -33t-34.5 -79h-96z" />
<glyph unicode="&#xd6;" horiz-adv-x="1544" d="M137 586q0 208 67.5 373t188.5 286q98 98 226.5 155.5t291.5 57.5q132 0 238.5 -45t181.5 -126t115.5 -192t40.5 -243q0 -93 -17 -184.5t-49 -176.5t-78.5 -161t-105.5 -137q-48 -50 -104 -90.5t-120 -69t-137 -43.5t-157 -15q-135 0 -243 46.5t-183.5 128t-115.5 193.5 t-40 243zM313 584q0 -100 27.5 -184t80 -144.5t129.5 -94.5t177 -34q111 0 212.5 44.5t178.5 131.5q48 54 83.5 120.5t59.5 138t36 144.5t12 140q0 107 -29 192t-83 145t-130 92t-170 32q-111 0 -212 -48t-179 -133q-44 -48 -79.5 -110t-61 -132t-39 -146t-13.5 -154z M653 1665q0 21 8 39t21.5 31t31.5 20.5t37 7.5q21 0 39.5 -7.5t32 -21t21.5 -31t8 -38.5t-8 -38.5t-21.5 -31t-32 -21t-39.5 -7.5q-19 0 -37 7.5t-31.5 20.5t-21.5 31t-8 39zM1040 1665q0 21 8 39t21 31t30.5 20.5t36.5 7.5q21 0 39.5 -7.5t32 -21t21.5 -31t8 -38.5 q0 -42 -29 -70t-70 -28q-40 0 -69 27.5t-29 70.5z" />
<glyph unicode="&#xd7;" horiz-adv-x="1403" d="M283 258l340 338l-340 340l94 94l340 -340l338 340l94 -94l-340 -340l340 -338l-94 -94l-338 340l-340 -340z" />
<glyph unicode="&#xd8;" horiz-adv-x="1544" d="M49 49l180 180q-43 76 -67.5 165t-24.5 192q0 208 69 372t187 283q100 100 226.5 156.5t293.5 56.5q130 0 229.5 -41.5t168.5 -107.5l159 161l80 -80l-166 -167q51 -79 77 -172.5t26 -198.5q0 -94 -17.5 -188t-52.5 -182.5t-87.5 -168.5t-121.5 -145q-94 -90 -215 -139.5 t-280 -49.5q-68 0 -128 12.5t-112 34.5t-95 52t-77 65l-170 -168zM313 578q0 -62 12 -118t33 -106l832 832q-51 52 -124 84.5t-163 32.5q-61 0 -117.5 -13t-106.5 -36t-94 -54.5t-79 -69.5q-46 -51 -82 -113.5t-60.5 -133t-37.5 -147.5t-13 -158zM422 256q51 -63 127 -96 t178 -33q106 0 198.5 37t164.5 108q52 51 93 117t69 141t42.5 156.5t14.5 163.5q0 71 -14.5 132.5t-39.5 111.5z" />
<glyph unicode="&#xd9;" horiz-adv-x="1411" d="M168 430q0 43 5.5 97t14.5 102l174 805h173l-173 -795q-4 -23 -8.5 -50t-8 -54t-5.5 -51t-2 -42q0 -80 24 -139t66.5 -98t100 -58.5t124.5 -19.5q85 0 152 24t118 75t87.5 130t60.5 189l191 889h172l-187 -871q-30 -140 -75.5 -249.5t-117 -184.5t-174.5 -114.5 t-247 -39.5q-111 0 -198 35t-146 96t-90 144t-31 180zM735 1894h153l207 -327h-121z" />
<glyph unicode="&#xda;" horiz-adv-x="1411" d="M168 430q0 43 5.5 97t14.5 102l174 805h173l-173 -795q-4 -23 -8.5 -50t-8 -54t-5.5 -51t-2 -42q0 -80 24 -139t66.5 -98t100 -58.5t124.5 -19.5q85 0 152 24t118 75t87.5 130t60.5 189l191 889h172l-187 -871q-30 -140 -75.5 -249.5t-117 -184.5t-174.5 -114.5 t-247 -39.5q-111 0 -198 35t-146 96t-90 144t-31 180zM758 1567l289 327h161l-327 -327h-123z" />
<glyph unicode="&#xdb;" horiz-adv-x="1411" d="M168 430q0 43 5.5 97t14.5 102l174 805h173l-173 -795q-4 -23 -8.5 -50t-8 -54t-5.5 -51t-2 -42q0 -80 24 -139t66.5 -98t100 -58.5t124.5 -19.5q85 0 152 24t118 75t87.5 130t60.5 189l191 889h172l-187 -871q-30 -140 -75.5 -249.5t-117 -184.5t-174.5 -114.5 t-247 -39.5q-111 0 -198 35t-146 96t-90 144t-31 180zM633 1567l283 331h133l145 -331h-113l-114 231l-213 -231h-121z" />
<glyph unicode="&#xdc;" horiz-adv-x="1411" d="M168 430q0 43 5.5 97t14.5 102l174 805h173l-173 -795q-4 -23 -8.5 -50t-8 -54t-5.5 -51t-2 -42q0 -80 24 -139t66.5 -98t100 -58.5t124.5 -19.5q85 0 152 24t118 75t87.5 130t60.5 189l191 889h172l-187 -871q-30 -140 -75.5 -249.5t-117 -184.5t-174.5 -114.5 t-247 -39.5q-111 0 -198 35t-146 96t-90 144t-31 180zM625 1665q0 21 8 39t21.5 31t31.5 20.5t37 7.5q21 0 39.5 -7.5t32 -21t21.5 -31t8 -38.5t-8 -38.5t-21.5 -31t-32 -21t-39.5 -7.5q-19 0 -37 7.5t-31.5 20.5t-21.5 31t-8 39zM1012 1665q0 21 8 39t21 31t30.5 20.5 t36.5 7.5q21 0 39.5 -7.5t32 -21t21.5 -31t8 -38.5q0 -42 -29 -70t-70 -28q-40 0 -69 27.5t-29 70.5z" />
<glyph unicode="&#xdd;" horiz-adv-x="1135" d="M211 1434h182l178 -660q7 -23 11.5 -46.5t7.5 -39.5h2q8 16 22 38.5t29 45.5l477 662h193l-662 -889l-114 -545h-172l114 541zM627 1567l289 327h161l-327 -327h-123z" />
<glyph unicode="&#xde;" horiz-adv-x="1178" d="M74 0l303 1434h174l-47 -226h196q116 0 197 -31t132.5 -83t75 -119.5t23.5 -140.5q0 -106 -35.5 -200t-109 -164.5t-186 -111.5t-267.5 -41h-215l-69 -317h-172zM346 469h201q106 0 182.5 26.5t126 73t73 111t23.5 139.5q0 49 -17 92.5t-53 75.5t-92.5 51t-136.5 19h-182 z" />
<glyph unicode="&#xdf;" horiz-adv-x="1106" d="M57 0l242 1137q20 93 56 167.5t91 127t130 80.5t172 28q79 0 140 -25t103 -68t64 -101t22 -125q0 -88 -31 -157.5t-79.5 -121.5t-108.5 -85t-119 -48v-4q72 -15 125 -49t88 -82.5t52.5 -108.5t17.5 -125q0 -88 -28.5 -171.5t-87 -149t-148.5 -105t-213 -39.5 q-23 0 -50 2.5t-52.5 7t-47.5 10t-35 11.5l35 156q16 -11 37 -19.5t43 -14.5t43 -9.5t37 -3.5q84 0 140.5 30t91.5 77t50 104.5t15 111.5q0 63 -17.5 116t-54 92.5t-93 63.5t-134.5 29l27 133q77 12 138 41t103.5 72.5t65 100.5t22.5 124q0 39 -11.5 74t-34 61t-54.5 41 t-74 15q-52 0 -95.5 -17t-78.5 -54.5t-61.5 -98t-44.5 -146.5l-232 -1085h-166z" />
<glyph unicode="&#xe0;" horiz-adv-x="1110" d="M78 356q0 58 12 132t40.5 151t76 150.5t118 131.5t166.5 93t222 35q80 0 165 -12t169 -29l-142 -680q-8 -38 -15.5 -85.5t-13 -94t-9 -86.5t-3.5 -62h-170q1 20 3 48t5.5 58t7 59t7.5 50h-4q-31 -49 -63 -92.5t-71 -76.5t-87 -52t-113 -19q-67 0 -122.5 24t-95.5 71.5 t-61.5 119t-21.5 166.5zM246 362q0 -57 10 -102.5t31.5 -77.5t55 -49.5t79.5 -17.5q50 0 93.5 20.5t81.5 55.5t69 81t56 97.5t42.5 105t28.5 103.5l65 311q-35 8 -82 14t-88 6q-87 0 -153.5 -27.5t-115.5 -72t-82.5 -102.5t-53.5 -118.5t-28.5 -119.5t-8.5 -107zM535 1546 h153l207 -327h-121z" />
<glyph unicode="&#xe1;" horiz-adv-x="1110" d="M78 356q0 58 12 132t40.5 151t76 150.5t118 131.5t166.5 93t222 35q80 0 165 -12t169 -29l-142 -680q-8 -38 -15.5 -85.5t-13 -94t-9 -86.5t-3.5 -62h-170q1 20 3 48t5.5 58t7 59t7.5 50h-4q-31 -49 -63 -92.5t-71 -76.5t-87 -52t-113 -19q-67 0 -122.5 24t-95.5 71.5 t-61.5 119t-21.5 166.5zM246 362q0 -57 10 -102.5t31.5 -77.5t55 -49.5t79.5 -17.5q50 0 93.5 20.5t81.5 55.5t69 81t56 97.5t42.5 105t28.5 103.5l65 311q-35 8 -82 14t-88 6q-87 0 -153.5 -27.5t-115.5 -72t-82.5 -102.5t-53.5 -118.5t-28.5 -119.5t-8.5 -107zM576 1219 l289 327h161l-327 -327h-123z" />
<glyph unicode="&#xe2;" horiz-adv-x="1110" d="M78 356q0 58 12 132t40.5 151t76 150.5t118 131.5t166.5 93t222 35q80 0 165 -12t169 -29l-142 -680q-8 -38 -15.5 -85.5t-13 -94t-9 -86.5t-3.5 -62h-170q1 20 3 48t5.5 58t7 59t7.5 50h-4q-31 -49 -63 -92.5t-71 -76.5t-87 -52t-113 -19q-67 0 -122.5 24t-95.5 71.5 t-61.5 119t-21.5 166.5zM246 362q0 -57 10 -102.5t31.5 -77.5t55 -49.5t79.5 -17.5q50 0 93.5 20.5t81.5 55.5t69 81t56 97.5t42.5 105t28.5 103.5l65 311q-35 8 -82 14t-88 6q-87 0 -153.5 -27.5t-115.5 -72t-82.5 -102.5t-53.5 -118.5t-28.5 -119.5t-8.5 -107zM432 1219 l283 331h133l145 -331h-113l-114 231l-213 -231h-121z" />
<glyph unicode="&#xe3;" horiz-adv-x="1110" d="M78 356q0 58 12 132t40.5 151t76 150.5t118 131.5t166.5 93t222 35q80 0 165 -12t169 -29l-142 -680q-8 -38 -15.5 -85.5t-13 -94t-9 -86.5t-3.5 -62h-170q1 20 3 48t5.5 58t7 59t7.5 50h-4q-31 -49 -63 -92.5t-71 -76.5t-87 -52t-113 -19q-67 0 -122.5 24t-95.5 71.5 t-61.5 119t-21.5 166.5zM246 362q0 -57 10 -102.5t31.5 -77.5t55 -49.5t79.5 -17.5q50 0 93.5 20.5t81.5 55.5t69 81t56 97.5t42.5 105t28.5 103.5l65 311q-35 8 -82 14t-88 6q-87 0 -153.5 -27.5t-115.5 -72t-82.5 -102.5t-53.5 -118.5t-28.5 -119.5t-8.5 -107zM371 1219 q3 48 21.5 89t48.5 70t70.5 45.5t87.5 16.5q44 0 73.5 -15t54.5 -33.5t49.5 -33.5t57.5 -15q22 0 41 9t34 24.5t24 36.5t12 45h96q-3 -45 -20.5 -85t-46 -70t-67 -47t-83.5 -17q-48 0 -80.5 14.5t-58 31.5t-49 31.5t-54.5 14.5q-51 0 -80.5 -33t-34.5 -79h-96z" />
<glyph unicode="&#xe4;" horiz-adv-x="1110" d="M78 356q0 58 12 132t40.5 151t76 150.5t118 131.5t166.5 93t222 35q80 0 165 -12t169 -29l-142 -680q-8 -38 -15.5 -85.5t-13 -94t-9 -86.5t-3.5 -62h-170q1 20 3 48t5.5 58t7 59t7.5 50h-4q-31 -49 -63 -92.5t-71 -76.5t-87 -52t-113 -19q-67 0 -122.5 24t-95.5 71.5 t-61.5 119t-21.5 166.5zM246 362q0 -57 10 -102.5t31.5 -77.5t55 -49.5t79.5 -17.5q50 0 93.5 20.5t81.5 55.5t69 81t56 97.5t42.5 105t28.5 103.5l65 311q-35 8 -82 14t-88 6q-87 0 -153.5 -27.5t-115.5 -72t-82.5 -102.5t-53.5 -118.5t-28.5 -119.5t-8.5 -107zM418 1317 q0 21 8 39t21.5 31t31.5 20.5t37 7.5q21 0 39.5 -7.5t32 -21t21.5 -31t8 -38.5t-8 -38.5t-21.5 -31t-32 -21t-39.5 -7.5q-19 0 -37 7.5t-31.5 20.5t-21.5 31t-8 39zM805 1317q0 21 8 39t21 31t30.5 20.5t36.5 7.5q21 0 39.5 -7.5t32 -21t21.5 -31t8 -38.5q0 -42 -29 -70 t-70 -28q-40 0 -69 27.5t-29 70.5z" />
<glyph unicode="&#xe5;" horiz-adv-x="1110" d="M78 356q0 58 12 132t40.5 151t76 150.5t118 131.5t166.5 93t222 35q80 0 165 -12t169 -29l-142 -680q-8 -38 -15.5 -85.5t-13 -94t-9 -86.5t-3.5 -62h-170q1 20 3 48t5.5 58t7 59t7.5 50h-4q-31 -49 -63 -92.5t-71 -76.5t-87 -52t-113 -19q-67 0 -122.5 24t-95.5 71.5 t-61.5 119t-21.5 166.5zM246 362q0 -57 10 -102.5t31.5 -77.5t55 -49.5t79.5 -17.5q50 0 93.5 20.5t81.5 55.5t69 81t56 97.5t42.5 105t28.5 103.5l65 311q-35 8 -82 14t-88 6q-87 0 -153.5 -27.5t-115.5 -72t-82.5 -102.5t-53.5 -118.5t-28.5 -119.5t-8.5 -107zM524 1366 q0 46 16.5 83t44.5 62.5t66.5 39.5t81.5 14q45 0 82 -14t63.5 -39.5t41 -60.5t14.5 -77t-16 -78t-44 -63t-66 -42t-81 -15t-80 13.5t-64.5 38.5t-43 60t-15.5 78zM615 1372q0 -54 32 -84.5t80 -30.5q25 0 46 9t36.5 25t24 36.5t8.5 44.5q0 25 -9 45.5t-24.5 35t-36.5 22.5 t-45 8q-49 0 -80.5 -31.5t-31.5 -79.5z" />
<glyph unicode="&#xe6;" horiz-adv-x="1692" d="M78 342q0 71 16.5 151t51 158.5t88.5 150.5t129.5 127t174 87.5t220.5 32.5q96 0 172.5 -22.5t136.5 -51.5q56 35 122.5 54.5t147.5 19.5q64 0 121.5 -18t101 -52t69.5 -83.5t26 -111.5q0 -81 -36 -147.5t-119 -114t-220 -73.5t-338 -27q0 -11 -1 -20.5t-1 -18.5 q0 -54 14.5 -102.5t46 -85t81.5 -58.5t120 -22q69 0 151.5 26.5t157.5 75.5l-30 -162q-56 -32 -131.5 -56t-169.5 -24q-90 0 -159 25.5t-117 70.5t-75 107.5t-34 136.5h-4q-36 -64 -80 -125t-97.5 -109t-116.5 -77t-137 -29q-76 0 -129.5 27.5t-87.5 76.5t-49.5 116.5 t-15.5 146.5zM244 346q0 -51 8.5 -93.5t25.5 -73t43.5 -47.5t63.5 -17q42 0 88 20.5t94.5 68t99 125.5t101.5 193q12 27 30 69t40 90t48.5 97t55.5 90q-17 8 -40 15.5t-49 13t-54 9t-54 3.5q-89 0 -161 -27t-128 -71.5t-96 -103t-65.5 -121t-38 -125t-12.5 -115.5zM958 561 q144 0 245 15t164 42.5t91.5 67t28.5 88.5q0 33 -13 58t-36.5 42.5t-55 26t-69.5 8.5q-61 0 -117.5 -24t-103.5 -69t-82 -109.5t-52 -145.5z" />
<glyph unicode="&#xe7;" horiz-adv-x="893" d="M78 393q0 84 17 165.5t50.5 154t82.5 134.5t112.5 106.5t141.5 70t169 25.5q43 0 82 -6t71 -16t57 -21.5t40 -22.5l-37 -162q-42 37 -101.5 62.5t-131.5 25.5q-69 0 -124.5 -24t-98.5 -64t-74 -92t-51 -108t-29.5 -111.5t-9.5 -103.5q0 -143 63 -217t172 -74 q66 0 137 27.5t134 70.5l-35 -164q-63 -34 -127.5 -54t-138.5 -20l-17 -79q36 0 68.5 -8.5t56.5 -25.5t38.5 -42t14.5 -58q0 -89 -74.5 -142.5t-218.5 -53.5q-20 0 -43 1.5t-45 4.5l19 88q39 -6 76 -6q86 0 128 25t42 67q0 35 -28.5 55.5t-90.5 20.5q-13 0 -27.5 -1 t-28.5 -3l37 168q-70 15 -122.5 51t-87 89.5t-51.5 121t-17 145.5z" />
<glyph unicode="&#xe8;" horiz-adv-x="997" d="M78 399q0 90 20 173.5t56.5 155.5t87.5 131.5t113 101.5t133 65t147 23q79 0 139.5 -21t101 -57.5t61.5 -84.5t21 -102q0 -81 -36 -147.5t-119 -114t-219 -73.5t-336 -27q-2 -11 -2 -23v-20q0 -54 15 -102t46.5 -84t81 -57t117.5 -21q69 0 151.5 26.5t157.5 75.5 l-31 -162q-55 -32 -131 -56t-170 -24q-113 0 -190.5 35t-125 93.5t-68.5 135t-21 160.5zM264 559q143 0 243 14.5t163 42.5t92 68.5t29 91.5q0 63 -46.5 98t-123.5 35q-61 0 -118 -26.5t-105 -73t-83 -111t-51 -139.5zM461 1546h153l207 -327h-121z" />
<glyph unicode="&#xe9;" horiz-adv-x="997" d="M78 399q0 90 20 173.5t56.5 155.5t87.5 131.5t113 101.5t133 65t147 23q79 0 139.5 -21t101 -57.5t61.5 -84.5t21 -102q0 -81 -36 -147.5t-119 -114t-219 -73.5t-336 -27q-2 -11 -2 -23v-20q0 -54 15 -102t46.5 -84t81 -57t117.5 -21q69 0 151.5 26.5t157.5 75.5 l-31 -162q-55 -32 -131 -56t-170 -24q-113 0 -190.5 35t-125 93.5t-68.5 135t-21 160.5zM264 559q143 0 243 14.5t163 42.5t92 68.5t29 91.5q0 63 -46.5 98t-123.5 35q-61 0 -118 -26.5t-105 -73t-83 -111t-51 -139.5zM500 1219l289 327h161l-327 -327h-123z" />
<glyph unicode="&#xea;" horiz-adv-x="997" d="M78 399q0 90 20 173.5t56.5 155.5t87.5 131.5t113 101.5t133 65t147 23q79 0 139.5 -21t101 -57.5t61.5 -84.5t21 -102q0 -81 -36 -147.5t-119 -114t-219 -73.5t-336 -27q-2 -11 -2 -23v-20q0 -54 15 -102t46.5 -84t81 -57t117.5 -21q69 0 151.5 26.5t157.5 75.5 l-31 -162q-55 -32 -131 -56t-170 -24q-113 0 -190.5 35t-125 93.5t-68.5 135t-21 160.5zM264 559q143 0 243 14.5t163 42.5t92 68.5t29 91.5q0 63 -46.5 98t-123.5 35q-61 0 -118 -26.5t-105 -73t-83 -111t-51 -139.5zM367 1219l283 331h133l145 -331h-113l-114 231 l-213 -231h-121z" />
<glyph unicode="&#xeb;" horiz-adv-x="997" d="M78 399q0 90 20 173.5t56.5 155.5t87.5 131.5t113 101.5t133 65t147 23q79 0 139.5 -21t101 -57.5t61.5 -84.5t21 -102q0 -81 -36 -147.5t-119 -114t-219 -73.5t-336 -27q-2 -11 -2 -23v-20q0 -54 15 -102t46.5 -84t81 -57t117.5 -21q69 0 151.5 26.5t157.5 75.5 l-31 -162q-55 -32 -131 -56t-170 -24q-113 0 -190.5 35t-125 93.5t-68.5 135t-21 160.5zM264 559q143 0 243 14.5t163 42.5t92 68.5t29 91.5q0 63 -46.5 98t-123.5 35q-61 0 -118 -26.5t-105 -73t-83 -111t-51 -139.5zM356 1317q0 21 8 39t21.5 31t31.5 20.5t37 7.5 q21 0 39.5 -7.5t32 -21t21.5 -31t8 -38.5t-8 -38.5t-21.5 -31t-32 -21t-39.5 -7.5q-19 0 -37 7.5t-31.5 20.5t-21.5 31t-8 39zM743 1317q0 21 8 39t21 31t30.5 20.5t36.5 7.5q21 0 39.5 -7.5t32 -21t21.5 -31t8 -38.5q0 -42 -29 -70t-70 -28q-40 0 -69 27.5t-29 70.5z" />
<glyph unicode="&#xec;" horiz-adv-x="530" d="M96 172q0 25 5 59t16 84l149 709h166l-150 -713q-9 -42 -12.5 -65t-3.5 -39q0 -41 22.5 -62.5t71.5 -21.5q26 0 45.5 3t36.5 9l-26 -131q-25 -8 -56.5 -13t-62.5 -5q-101 0 -151 50.5t-50 135.5zM198 1546h153l207 -327h-121z" />
<glyph unicode="&#xed;" horiz-adv-x="530" d="M96 172q0 25 5 59t16 84l149 709h166l-150 -713q-9 -42 -12.5 -65t-3.5 -39q0 -41 22.5 -62.5t71.5 -21.5q26 0 45.5 3t36.5 9l-26 -131q-25 -8 -56.5 -13t-62.5 -5q-101 0 -151 50.5t-50 135.5zM212 1219l289 327h161l-327 -327h-123z" />
<glyph unicode="&#xee;" horiz-adv-x="530" d="M96 172q0 25 5 59t16 84l149 709h166l-150 -713q-9 -42 -12.5 -65t-3.5 -39q0 -41 22.5 -62.5t71.5 -21.5q26 0 45.5 3t36.5 9l-26 -131q-25 -8 -56.5 -13t-62.5 -5q-101 0 -151 50.5t-50 135.5zM99 1219l283 331h133l145 -331h-113l-114 231l-213 -231h-121z" />
<glyph unicode="&#xef;" horiz-adv-x="530" d="M96 172q0 25 5 59t16 84l149 709h166l-150 -713q-9 -42 -12.5 -65t-3.5 -39q0 -41 22.5 -62.5t71.5 -21.5q26 0 45.5 3t36.5 9l-26 -131q-25 -8 -56.5 -13t-62.5 -5q-101 0 -151 50.5t-50 135.5zM103 1317q0 21 8 39t21.5 31t31.5 20.5t37 7.5q21 0 39.5 -7.5t32 -21 t21.5 -31t8 -38.5t-8 -38.5t-21.5 -31t-32 -21t-39.5 -7.5q-19 0 -37 7.5t-31.5 20.5t-21.5 31t-8 39zM490 1317q0 21 8 39t21 31t30.5 20.5t36.5 7.5q21 0 39.5 -7.5t32 -21t21.5 -31t8 -38.5q0 -42 -29 -70t-70 -28q-40 0 -69 27.5t-29 70.5z" />
<glyph unicode="&#xf0;" horiz-adv-x="1069" d="M78 373q0 89 17.5 173.5t50 160t79 138t104 108t124.5 71t141 25.5q75 0 127 -29t80 -70h4q-10 41 -26.5 82.5t-36 80t-41.5 71.5t-44 57l-295 -123l-40 96l268 111q-21 25 -48 50.5t-57 50.5t-60 48t-56 42h219q32 -25 70.5 -58.5t70.5 -71.5l287 121l43 -94l-260 -110 q91 -116 142.5 -269t51.5 -342q0 -80 -14.5 -164.5t-44 -164t-74.5 -150.5t-106.5 -123.5t-139.5 -83.5t-174 -31q-81 0 -148 26.5t-114.5 77.5t-73.5 125t-26 169zM246 381q0 -61 13 -110t39.5 -83.5t65 -53.5t89.5 -19q64 0 116.5 25.5t94 67.5t71.5 97.5t50 115t30 120 t10 112.5q0 49 -11 95t-36.5 82t-67 57.5t-102.5 21.5q-84 0 -151 -47.5t-114 -123.5t-72 -170t-25 -187z" />
<glyph unicode="&#xf1;" horiz-adv-x="1151" d="M57 0l158 731q8 39 16 81.5t15 82t12 73.5t8 56h160q-5 -39 -12 -81.5t-12 -78.5q-6 -42 -13 -82h4q35 55 77.5 103.5t92 85t105 57.5t116.5 21q68 0 117 -20.5t81.5 -57.5t48 -89t15.5 -114q0 -15 -3.5 -41t-9 -56t-11 -59.5t-10.5 -50.5l-119 -561h-166l125 600 q4 16 8 37t7 42t5 38.5t2 27.5q0 76 -36.5 120t-108.5 44q-66 0 -131 -39t-120 -99t-94.5 -132t-53.5 -139l-107 -500h-166zM371 1219q3 48 21.5 89t48.5 70t70.5 45.5t87.5 16.5q44 0 73.5 -15t54.5 -33.5t49.5 -33.5t57.5 -15q22 0 41 9t34 24.5t24 36.5t12 45h96 q-3 -45 -20.5 -85t-46 -70t-67 -47t-83.5 -17q-48 0 -80.5 14.5t-58 31.5t-49 31.5t-54.5 14.5q-51 0 -80.5 -33t-34.5 -79h-96z" />
<glyph unicode="&#xf2;" horiz-adv-x="1096" d="M78 379q0 141 40.5 263.5t114 213t176 142t226.5 51.5q87 0 157.5 -28t120.5 -80.5t77.5 -127t27.5 -168.5q0 -136 -38.5 -258t-111 -213.5t-176 -145t-233.5 -53.5q-88 0 -158.5 28t-120 80.5t-76 127t-26.5 168.5zM246 387q0 -62 15.5 -112.5t44 -86t70 -54.5t93.5 -19 q89 0 160 44.5t120 118t75 167.5t26 192q0 65 -16 115.5t-45 85t-70 53t-92 18.5q-88 0 -159 -45t-120 -118.5t-75.5 -167t-26.5 -191.5zM506 1546h153l207 -327h-121z" />
<glyph unicode="&#xf3;" horiz-adv-x="1096" d="M78 379q0 141 40.5 263.5t114 213t176 142t226.5 51.5q87 0 157.5 -28t120.5 -80.5t77.5 -127t27.5 -168.5q0 -136 -38.5 -258t-111 -213.5t-176 -145t-233.5 -53.5q-88 0 -158.5 28t-120 80.5t-76 127t-26.5 168.5zM246 387q0 -62 15.5 -112.5t44 -86t70 -54.5t93.5 -19 q89 0 160 44.5t120 118t75 167.5t26 192q0 65 -16 115.5t-45 85t-70 53t-92 18.5q-88 0 -159 -45t-120 -118.5t-75.5 -167t-26.5 -191.5zM516 1219l289 327h161l-327 -327h-123z" />
<glyph unicode="&#xf4;" horiz-adv-x="1096" d="M78 379q0 141 40.5 263.5t114 213t176 142t226.5 51.5q87 0 157.5 -28t120.5 -80.5t77.5 -127t27.5 -168.5q0 -136 -38.5 -258t-111 -213.5t-176 -145t-233.5 -53.5q-88 0 -158.5 28t-120 80.5t-76 127t-26.5 168.5zM246 387q0 -62 15.5 -112.5t44 -86t70 -54.5t93.5 -19 q89 0 160 44.5t120 118t75 167.5t26 192q0 65 -16 115.5t-45 85t-70 53t-92 18.5q-88 0 -159 -45t-120 -118.5t-75.5 -167t-26.5 -191.5zM379 1219l283 331h133l145 -331h-113l-114 231l-213 -231h-121z" />
<glyph unicode="&#xf5;" horiz-adv-x="1096" d="M78 379q0 141 40.5 263.5t114 213t176 142t226.5 51.5q87 0 157.5 -28t120.5 -80.5t77.5 -127t27.5 -168.5q0 -136 -38.5 -258t-111 -213.5t-176 -145t-233.5 -53.5q-88 0 -158.5 28t-120 80.5t-76 127t-26.5 168.5zM246 387q0 -62 15.5 -112.5t44 -86t70 -54.5t93.5 -19 q89 0 160 44.5t120 118t75 167.5t26 192q0 65 -16 115.5t-45 85t-70 53t-92 18.5q-88 0 -159 -45t-120 -118.5t-75.5 -167t-26.5 -191.5zM350 1219q3 48 21.5 89t48.5 70t70.5 45.5t87.5 16.5q44 0 73.5 -15t54.5 -33.5t49.5 -33.5t57.5 -15q22 0 41 9t34 24.5t24 36.5 t12 45h96q-3 -45 -20.5 -85t-46 -70t-67 -47t-83.5 -17q-48 0 -80.5 14.5t-58 31.5t-49 31.5t-54.5 14.5q-51 0 -80.5 -33t-34.5 -79h-96z" />
<glyph unicode="&#xf6;" horiz-adv-x="1096" d="M78 379q0 141 40.5 263.5t114 213t176 142t226.5 51.5q87 0 157.5 -28t120.5 -80.5t77.5 -127t27.5 -168.5q0 -136 -38.5 -258t-111 -213.5t-176 -145t-233.5 -53.5q-88 0 -158.5 28t-120 80.5t-76 127t-26.5 168.5zM246 387q0 -62 15.5 -112.5t44 -86t70 -54.5t93.5 -19 q89 0 160 44.5t120 118t75 167.5t26 192q0 65 -16 115.5t-45 85t-70 53t-92 18.5q-88 0 -159 -45t-120 -118.5t-75.5 -167t-26.5 -191.5zM387 1317q0 21 8 39t21.5 31t31.5 20.5t37 7.5q21 0 39.5 -7.5t32 -21t21.5 -31t8 -38.5t-8 -38.5t-21.5 -31t-32 -21t-39.5 -7.5 q-19 0 -37 7.5t-31.5 20.5t-21.5 31t-8 39zM774 1317q0 21 8 39t21 31t30.5 20.5t36.5 7.5q21 0 39.5 -7.5t32 -21t21.5 -31t8 -38.5q0 -42 -29 -70t-70 -28q-40 0 -69 27.5t-29 70.5z" />
<glyph unicode="&#xf7;" horiz-adv-x="1403" d="M256 530v134h940v-134h-940zM623 215q0 46 30 78.5t77 32.5q100 0 100 -109q0 -47 -29.5 -75.5t-70.5 -28.5q-45 0 -76 29.5t-31 72.5zM629 973q0 45 29 76.5t76 31.5q102 0 102 -106q0 -47 -30.5 -77t-71.5 -30q-45 0 -75 30.5t-30 74.5z" />
<glyph unicode="&#xf8;" horiz-adv-x="1096" d="M-55 27l170 157q-17 44 -27 91.5t-10 103.5q0 140 40.5 262t114 213t176.5 143t228 52q91 0 160.5 -30t120.5 -83l180 168l78 -82l-197 -184q19 -39 29 -88t10 -105q0 -142 -40.5 -264.5t-114 -212.5t-176.5 -141.5t-228 -51.5q-90 0 -161.5 29.5t-121.5 85.5l-156 -145z M246 383q0 -38 6 -70l547 510q-29 44 -73 65t-99 21q-88 0 -159 -45t-120 -118.5t-75.5 -168t-26.5 -194.5zM295 201q26 -38 71.5 -62t102.5 -24q89 0 160 45t120 118.5t75 169t26 195.5q0 39 -6 70z" />
<glyph unicode="&#xf9;" horiz-adv-x="1143" d="M98 258q0 13 4 39t9 56t11.5 59.5t10.5 50.5l119 561h166l-127 -600q-4 -16 -8 -37t-7.5 -42t-5.5 -38.5t-2 -27.5q0 -75 36.5 -119.5t109.5 -44.5q44 0 88 18t85.5 48.5t78.5 71t67 86t51 93.5t31 92l107 500h165l-157 -733q-9 -39 -16.5 -81t-14.5 -81t-12 -73t-8 -56 h-160q5 39 11.5 81.5t12.5 78.5q7 42 13 82h-4q-35 -55 -77.5 -103.5t-92 -85t-105 -57.5t-115.5 -21q-66 0 -115.5 20.5t-82.5 57.5t-49.5 89t-16.5 116zM504 1546h153l207 -327h-121z" />
<glyph unicode="&#xfa;" horiz-adv-x="1143" d="M98 258q0 13 4 39t9 56t11.5 59.5t10.5 50.5l119 561h166l-127 -600q-4 -16 -8 -37t-7.5 -42t-5.5 -38.5t-2 -27.5q0 -75 36.5 -119.5t109.5 -44.5q44 0 88 18t85.5 48.5t78.5 71t67 86t51 93.5t31 92l107 500h165l-157 -733q-9 -39 -16.5 -81t-14.5 -81t-12 -73t-8 -56 h-160q5 39 11.5 81.5t12.5 78.5q7 42 13 82h-4q-35 -55 -77.5 -103.5t-92 -85t-105 -57.5t-115.5 -21q-66 0 -115.5 20.5t-82.5 57.5t-49.5 89t-16.5 116zM555 1219l289 327h161l-327 -327h-123z" />
<glyph unicode="&#xfb;" horiz-adv-x="1143" d="M98 258q0 13 4 39t9 56t11.5 59.5t10.5 50.5l119 561h166l-127 -600q-4 -16 -8 -37t-7.5 -42t-5.5 -38.5t-2 -27.5q0 -75 36.5 -119.5t109.5 -44.5q44 0 88 18t85.5 48.5t78.5 71t67 86t51 93.5t31 92l107 500h165l-157 -733q-9 -39 -16.5 -81t-14.5 -81t-12 -73t-8 -56 h-160q5 39 11.5 81.5t12.5 78.5q7 42 13 82h-4q-35 -55 -77.5 -103.5t-92 -85t-105 -57.5t-115.5 -21q-66 0 -115.5 20.5t-82.5 57.5t-49.5 89t-16.5 116zM404 1219l283 331h133l145 -331h-113l-114 231l-213 -231h-121z" />
<glyph unicode="&#xfc;" horiz-adv-x="1143" d="M98 258q0 13 4 39t9 56t11.5 59.5t10.5 50.5l119 561h166l-127 -600q-4 -16 -8 -37t-7.5 -42t-5.5 -38.5t-2 -27.5q0 -75 36.5 -119.5t109.5 -44.5q44 0 88 18t85.5 48.5t78.5 71t67 86t51 93.5t31 92l107 500h165l-157 -733q-9 -39 -16.5 -81t-14.5 -81t-12 -73t-8 -56 h-160q5 39 11.5 81.5t12.5 78.5q7 42 13 82h-4q-35 -55 -77.5 -103.5t-92 -85t-105 -57.5t-115.5 -21q-66 0 -115.5 20.5t-82.5 57.5t-49.5 89t-16.5 116zM416 1317q0 21 8 39t21.5 31t31.5 20.5t37 7.5q21 0 39.5 -7.5t32 -21t21.5 -31t8 -38.5t-8 -38.5t-21.5 -31t-32 -21 t-39.5 -7.5q-19 0 -37 7.5t-31.5 20.5t-21.5 31t-8 39zM803 1317q0 21 8 39t21 31t30.5 20.5t36.5 7.5q21 0 39.5 -7.5t32 -21t21.5 -31t8 -38.5q0 -42 -29 -70t-70 -28q-40 0 -69 27.5t-29 70.5z" />
<glyph unicode="&#xfd;" horiz-adv-x="991" d="M-160 -467l31 145q15 -8 39 -13t47 -5q69 0 124.5 38t104.5 116l123 190l-186 1020h170l119 -786q3 -22 3.5 -42.5t-1.5 -35.5h6q5 12 15.5 34t23.5 42l454 788h181l-727 -1194q-46 -75 -93 -132.5t-98.5 -97.5t-110 -60.5t-128.5 -20.5q-23 0 -51.5 4.5t-45.5 9.5z M486 1219l289 327h161l-327 -327h-123z" />
<glyph unicode="&#xfe;" horiz-adv-x="1110" d="M-57 -475l422 1991h163l-106 -502q-12 -56 -24.5 -107.5t-26.5 -97.5h4q144 240 354 240q70 0 126 -24t95.5 -72t60.5 -120t21 -167q0 -74 -16 -153.5t-49 -156.5t-82.5 -146t-116.5 -121.5t-152 -83t-188 -30.5q-59 0 -116.5 11t-100.5 26l-102 -487h-166zM240 152 q18 -8 43 -14.5t52 -11.5t55 -8t52 -3q69 0 127.5 23t105 62.5t82 93t59.5 114t36 125t12 126.5q0 54 -9.5 100t-31.5 79t-56.5 52t-84.5 19q-52 0 -97.5 -21.5t-84.5 -57.5t-71 -83.5t-57 -98.5t-42.5 -102.5t-26.5 -96.5z" />
<glyph unicode="&#xff;" horiz-adv-x="991" d="M-160 -467l31 145q15 -8 39 -13t47 -5q69 0 124.5 38t104.5 116l123 190l-186 1020h170l119 -786q3 -22 3.5 -42.5t-1.5 -35.5h6q5 12 15.5 34t23.5 42l454 788h181l-727 -1194q-46 -75 -93 -132.5t-98.5 -97.5t-110 -60.5t-128.5 -20.5q-23 0 -51.5 4.5t-45.5 9.5z M328 1317q0 21 8 39t21.5 31t31.5 20.5t37 7.5q21 0 39.5 -7.5t32 -21t21.5 -31t8 -38.5t-8 -38.5t-21.5 -31t-32 -21t-39.5 -7.5q-19 0 -37 7.5t-31.5 20.5t-21.5 31t-8 39zM715 1317q0 21 8 39t21 31t30.5 20.5t36.5 7.5q21 0 39.5 -7.5t32 -21t21.5 -31t8 -38.5 q0 -42 -29 -70t-70 -28q-40 0 -69 27.5t-29 70.5z" />
<glyph unicode="&#x131;" horiz-adv-x="530" d="M96 172q0 25 5 59t16 84l149 709h166l-150 -713q-9 -42 -12.5 -65t-3.5 -39q0 -41 22.5 -62.5t71.5 -21.5q26 0 45.5 3t36.5 9l-26 -131q-25 -8 -56.5 -13t-62.5 -5q-101 0 -151 50.5t-50 135.5z" />
<glyph unicode="&#x152;" horiz-adv-x="1892" d="M133 586q0 208 67.5 373t188.5 286q98 98 228 155.5t301 57.5q62 0 116 -3.5t102.5 -8t92 -8.5t84.5 -4h661l-32 -152h-553l-105 -489h514l-33 -152h-514l-104 -489h588l-31 -152h-676q-35 0 -71 -4t-74 -8.5t-80 -8.5t-90 -4q-135 0 -242.5 46.5t-182.5 128.5t-115 194 t-40 242zM311 584q0 -96 26 -179.5t78 -145t130.5 -97t183.5 -35.5q71 0 132.5 10.5t117.5 26.5l235 1110q-52 15 -127 24t-182 9q-121 0 -222.5 -46.5t-176.5 -130.5q-44 -47 -80 -108t-61.5 -131.5t-39.5 -148t-14 -158.5z" />
<glyph unicode="&#x153;" horiz-adv-x="1743" d="M78 379q0 141 40.5 263.5t114 213t176 142t226.5 51.5q64 0 117 -17.5t94.5 -49.5t71 -76t45.5 -97h4q37 54 81.5 98.5t96.5 76t111.5 48.5t125.5 17q79 0 139.5 -21t101.5 -57.5t62 -84.5t21 -102q0 -81 -36 -147.5t-119 -114t-220 -73.5t-338 -27q0 -11 -1 -23.5 t-1 -23.5q0 -51 15 -98t46.5 -83t81 -57.5t117.5 -21.5q35 0 73.5 7t79 20t81 32t78.5 43l-31 -162q-56 -32 -132.5 -56t-170.5 -24q-77 0 -136 18t-102 50t-71.5 76.5t-45.5 97.5h-4q-72 -112 -177.5 -177t-233.5 -65q-88 0 -158.5 28t-120 80.5t-76 127t-26.5 168.5z M246 387q0 -62 15.5 -112.5t44 -86t70 -54.5t93.5 -19q89 0 159 44.5t118 118t73 167.5t25 192q0 130 -57 201t-160 71q-88 0 -159 -45t-120 -118.5t-75.5 -167t-26.5 -191.5zM1012 559q157 0 258.5 17t161 46.5t83 68t23.5 81.5q0 68 -47.5 102.5t-122.5 34.5 q-60 0 -117 -25.5t-104.5 -71.5t-82.5 -110.5t-52 -142.5z" />
<glyph unicode="&#x178;" horiz-adv-x="1135" d="M211 1434h182l178 -660q7 -23 11.5 -46.5t7.5 -39.5h2q8 16 22 38.5t29 45.5l477 662h193l-662 -889l-114 -545h-172l114 541zM487 1665q0 21 8 39t21.5 31t31.5 20.5t37 7.5q21 0 39.5 -7.5t32 -21t21.5 -31t8 -38.5t-8 -38.5t-21.5 -31t-32 -21t-39.5 -7.5 q-19 0 -37 7.5t-31.5 20.5t-21.5 31t-8 39zM874 1665q0 21 8 39t21 31t30.5 20.5t36.5 7.5q21 0 39.5 -7.5t32 -21t21.5 -31t8 -38.5q0 -42 -29 -70t-70 -28q-40 0 -69 27.5t-29 70.5z" />
<glyph unicode="&#x2c6;" horiz-adv-x="715" d="M209 1219l283 331h133l145 -331h-113l-114 231l-213 -231h-121z" />
<glyph unicode="&#x2da;" horiz-adv-x="715" d="M319 1366q0 46 16.5 83t44.5 62.5t66.5 39.5t81.5 14q45 0 82 -14t63.5 -39.5t41 -60.5t14.5 -77t-16 -78t-44 -63t-66 -42t-81 -15t-80 13.5t-64.5 38.5t-43 60t-15.5 78zM410 1372q0 -54 32 -84.5t80 -30.5q25 0 46 9t36.5 25t24 36.5t8.5 44.5q0 25 -9 45.5t-24.5 35 t-36.5 22.5t-45 8q-49 0 -80.5 -31.5t-31.5 -79.5z" />
<glyph unicode="&#x2dc;" horiz-adv-x="715" d="M178 1219q3 48 21.5 89t48.5 70t70.5 45.5t87.5 16.5q44 0 73.5 -15t54.5 -33.5t49.5 -33.5t57.5 -15q22 0 41 9t34 24.5t24 36.5t12 45h96q-3 -45 -20.5 -85t-46 -70t-67 -47t-83.5 -17q-48 0 -80.5 14.5t-58 31.5t-49 31.5t-54.5 14.5q-51 0 -80.5 -33t-34.5 -79h-96z " />
<glyph unicode="&#x2010;" horiz-adv-x="819" d="M131 506l29 129h547l-29 -129h-547z" />
<glyph unicode="&#x2013;" horiz-adv-x="1024" d="M4 506l26 129h1024l-26 -129h-1024z" />
<glyph unicode="&#x2014;" horiz-adv-x="2048" d="M4 506l26 129h2048l-26 -129h-2048z" />
<glyph unicode="&#x2018;" horiz-adv-x="432" d="M193 987l204 447h119l-174 -447h-149z" />
<glyph unicode="&#x2019;" horiz-adv-x="432" d="M201 987l176 447h147l-207 -447h-116z" />
<glyph unicode="&#x201a;" horiz-adv-x="432" d="M-57 -225l176 444h147l-207 -444h-116z" />
<glyph unicode="&#x201c;" horiz-adv-x="766" d="M193 987l204 447h119l-174 -447h-149zM526 987l207 447h117l-174 -447h-150z" />
<glyph unicode="&#x201d;" horiz-adv-x="766" d="M201 987l176 447h147l-207 -447h-116zM535 987l176 447h147l-207 -447h-116z" />
<glyph unicode="&#x201e;" horiz-adv-x="766" d="M-57 -229l176 446h147l-207 -446h-116zM276 -229l177 446h147l-207 -446h-117z" />
<glyph unicode="&#x2022;" horiz-adv-x="829" d="M184 635q0 53 20.5 100t55.5 82t82 55.5t100 20.5t100 -20.5t81.5 -55.5t54.5 -82t20 -100t-20.5 -99.5t-55.5 -81.5t-82 -55t-100 -20t-99.5 20t-81.5 55t-55 81.5t-20 99.5z" />
<glyph unicode="&#x2026;" horiz-adv-x="1507" d="M53 92q0 23 8.5 43.5t23.5 36t35 24.5t42 9q23 0 43 -9t35 -24.5t23.5 -36t8.5 -43.5q0 -22 -8.5 -42t-23.5 -35t-35 -24t-43 -9q-22 0 -42 9t-35 24t-23.5 35t-8.5 42zM553 92q0 23 8.5 43.5t23.5 36t35.5 24.5t43.5 9t43 -9t35 -24.5t23.5 -36t8.5 -43.5 q0 -22 -8.5 -42t-23.5 -35t-35 -24t-43 -9t-43.5 9t-35.5 24t-23.5 35t-8.5 42zM1057 92q0 23 8.5 43.5t23.5 36t34.5 24.5t41.5 9q23 0 43.5 -9t35.5 -24.5t23.5 -36t8.5 -43.5q0 -22 -8.5 -42t-23.5 -35t-35.5 -24t-43.5 -9q-22 0 -41.5 9t-34.5 24t-23.5 35t-8.5 42z" />
<glyph unicode="&#x2039;" horiz-adv-x="647" d="M88 537l365 344h176l-379 -355l223 -325h-158z" />
<glyph unicode="&#x203a;" horiz-adv-x="647" d="M18 203l379 354l-223 326h158l227 -336l-364 -344h-177z" />
<glyph unicode="&#x2044;" horiz-adv-x="270" d="M-453 0l1164 1434h145l-1161 -1434h-148z" />
<glyph unicode="&#x2215;" horiz-adv-x="270" d="M-453 0l1164 1434h145l-1161 -1434h-148z" />
<glyph unicode="&#x20ac;" d="M47 485l25 111h135q2 54 7.5 106.5t16.5 106.5h-112l22 109h117q36 115 97.5 214t149 171.5t201 113.5t252.5 41q82 0 152 -19t117 -42l-31 -172q-54 37 -118 60.5t-138 23.5q-101 0 -182.5 -29.5t-144.5 -82t-107.5 -124t-73.5 -155.5h576l-25 -109h-582 q-11 -53 -15.5 -106t-6.5 -107h559l-23 -111h-532q19 -180 108.5 -269t239.5 -89q71 0 138.5 20.5t125.5 51.5l-22 -168q-47 -22 -113.5 -40t-157.5 -18q-101 0 -187.5 33.5t-152 98.5t-106 160.5t-49.5 219.5h-160z" />
<glyph unicode="&#x2122;" horiz-adv-x="1583" d="M156 1333v101h524v-99h-207v-563h-113v561h-204zM766 772v662h127l225 -496h4l230 496h123v-662h-107v477h-4l-221 -477h-58l-213 477h-4v-477h-102z" />
<glyph unicode="&#xe000;" horiz-adv-x="1025" d="M0 1025h1025v-1025h-1025v1025z" />
<glyph unicode="&#xfb01;" horiz-adv-x="1134" d="M10 -340l264 1225h-176l31 139h176l41 190q19 88 53 150t81 101t106.5 57t130.5 18q37 0 72.5 -6t60.5 -14l-27 -146q-10 5 -24 9.5t-30 8.5t-33.5 6.5t-33.5 2.5q-82 0 -126.5 -53.5t-67.5 -159.5l-37 -164h242l-33 -139h-242l-262 -1225h-166zM701 172q0 25 5 59t16 84 l149 709h166l-150 -713q-9 -42 -12.5 -65t-3.5 -39q0 -41 22.5 -62.5t71.5 -21.5q26 0 45.5 3t36.5 9l-26 -131q-25 -8 -56.5 -13t-62.5 -5q-101 0 -151 50.5t-50 135.5zM923 1389q0 46 32.5 75t76.5 29t75 -29.5t31 -74.5t-30.5 -77t-75.5 -32q-44 0 -76.5 31.5t-32.5 77.5 z" />
<glyph unicode="&#xfb02;" horiz-adv-x="1134" d="M10 -340l264 1225h-176l31 139h176l41 190q19 88 53 150t81 101t106.5 57t130.5 18q37 0 72.5 -6t60.5 -14l-27 -146q-10 5 -24 9.5t-30 8.5t-33.5 6.5t-33.5 2.5q-82 0 -126.5 -53.5t-67.5 -159.5l-37 -164h242l-33 -139h-242l-262 -1225h-166zM701 172q0 25 5 59t16 84 l256 1202h166l-257 -1206q-9 -42 -12.5 -65t-3.5 -39q0 -41 22.5 -62.5t71.5 -21.5q26 0 45.5 3t36.5 9l-26 -131q-25 -8 -56.5 -13t-62.5 -5q-101 0 -151 50.5t-50 135.5z" />
<glyph unicode="&#xfb03;" horiz-adv-x="1738" d="M1304 172q0 25 5 59t16 84l149 709h166l-150 -713q-9 -42 -12.5 -65t-3.5 -39q0 -41 22.5 -62.5t71.5 -21.5q26 0 45.5 3t36.5 9l-26 -131q-25 -8 -56.5 -13t-62.5 -5q-101 0 -151 50.5t-50 135.5zM1526 1389q0 46 32.5 75t76.5 29t75 -29.5t31 -74.5t-30.5 -77 t-75.5 -32q-44 0 -76.5 31.5t-32.5 77.5zM614 -340l264 1225h-176l31 139h176l41 190q19 88 53 150t81 101t106.5 57t130.5 18q37 0 72.5 -6t60.5 -14l-27 -146q-10 5 -24 9.5t-30 8.5t-33.5 6.5t-33.5 2.5q-82 0 -126.5 -53.5t-67.5 -159.5l-37 -164h242l-33 -139h-242 l-262 -1225h-166zM10 -340l264 1225h-176l31 139h176l41 190q19 88 53 150t81 101t106.5 57t130.5 18q37 0 72.5 -6t60.5 -14l-27 -146q-10 5 -24 9.5t-30 8.5t-33.5 6.5t-33.5 2.5q-82 0 -126.5 -53.5t-67.5 -159.5l-37 -164h242l-33 -139h-242l-262 -1225h-166z" />
<glyph unicode="&#xfb04;" horiz-adv-x="1738" d="M1304 172q0 25 5 59t16 84l256 1202h166l-257 -1206q-9 -42 -12.5 -65t-3.5 -39q0 -41 22.5 -62.5t71.5 -21.5q26 0 45.5 3t36.5 9l-26 -131q-25 -8 -56.5 -13t-62.5 -5q-101 0 -151 50.5t-50 135.5zM614 -340l264 1225h-176l31 139h176l41 190q19 88 53 150t81 101 t106.5 57t130.5 18q37 0 72.5 -6t60.5 -14l-27 -146q-10 5 -24 9.5t-30 8.5t-33.5 6.5t-33.5 2.5q-82 0 -126.5 -53.5t-67.5 -159.5l-37 -164h242l-33 -139h-242l-262 -1225h-166zM10 -340l264 1225h-176l31 139h176l41 190q19 88 53 150t81 101t106.5 57t130.5 18 q37 0 72.5 -6t60.5 -14l-27 -146q-10 5 -24 9.5t-30 8.5t-33.5 6.5t-33.5 2.5q-82 0 -126.5 -53.5t-67.5 -159.5l-37 -164h242l-33 -139h-242l-262 -1225h-166z" />
<glyph horiz-adv-x="795" d="M174 584l25 112h182l127 592l-207 -55l27 125l348 96l-164 -758h190l-24 -112h-504z" />
<glyph horiz-adv-x="793" d="M121 584l24 110l297 250q45 38 83.5 72.5t66.5 69t43.5 69.5t15.5 74q0 43 -31 72.5t-88 29.5q-55 0 -114 -25.5t-109 -60.5l33 152q35 20 89 38.5t126 18.5q59 0 103 -16t73 -44t43.5 -66t14.5 -81q0 -61 -23 -112t-61.5 -97t-88 -88t-102.5 -84l-197 -155l-2 -4h381 l-28 -123h-549z" />
<glyph horiz-adv-x="788" d="M156 610l28 133q18 -12 43.5 -22.5t54.5 -19t60 -13t59 -4.5q53 0 89.5 12.5t59 33t32.5 46t10 51.5q0 30 -10.5 54t-34 41.5t-60 26.5t-88.5 9h-84l27 121h84q55 0 97 13t70 34.5t42 49t14 55.5q0 43 -31 72.5t-100 29.5q-54 0 -102.5 -16t-93.5 -41l30 141 q19 8 43 14.5t49.5 11.5t51.5 8t49 3q55 0 99.5 -14t76 -39.5t48.5 -62.5t17 -83q0 -86 -58 -144t-157 -83v-4q156 -41 156 -197q0 -44 -17 -91t-56 -85.5t-103 -63t-158 -24.5q-27 0 -61 3.5t-68 9.5t-63 15t-45 19z" />
<glyph horiz-adv-x="719" d="M75 789l18 92l481 553h160l-115 -537h113l-23 -108h-112l-45 -205h-131l45 205h-391zM234 897h254l70 326q5 22 11.5 47t12.5 43l-4 2q-8 -15 -21 -33t-30 -36z" />
</font>
</defs>
</svg>
